<?xml version="1.0" encoding="utf-8" standalone="yes"?>
<!DOCTYPE svg PUBLIC "-//W3C//DTD SVG 1.1//EN" "http://www.w3.org/Graphics/SVG/1.1/DTD/svg11.dtd">
<svg version="1.1" xmlns="http://www.w3.org/2000/svg" xmlns:xlink="http://www.w3.org/1999/xlink" width="502" height="570" viewBox="0 0 502 570" style="fill:none; stroke:none; fill-rule:evenodd; clip-rule:evenodd; stroke-linecap:round; stroke-linejoin:round; stroke-miterlimit:1.5;">
<style class="text-font-style fontImports" data-font-family="Source Serif 4">
@import url(https://fonts.googleapis.com/css2?family=Playfair+Display:wght@400;700&amp;family=Source+Serif+4:wght@400;700&amp;display=block);
</style>
<style class="text-font-style"></style>
<rect id="" x="0" y="0" width="501.188" height="570" style="fill:#ffffff;"></rect>
<g id="items" style="isolation:isolate;">
<g id="blend" style="mix-blend-mode:normal;">
<g id="g-root-cp_-1_body_1ulj5ex1qs0zcx-fill" data-item-order="-280793" transform="translate(249.0390625, 368.0)"></g>
<g id="g-root-cp_-1_body_1ulj5ex1qs0zcx-stroke" data-item-order="-280793" transform="translate(249.0390625, 368.0)">
<g id="cp_-1_body_1ulj5ex1qs0zcx-stroke" fill="none" stroke-linecap="round" stroke-linejoin="round" stroke-miterlimit="4" stroke="#1f1d1a" stroke-width="2" stroke-dasharray="5.0, 7.0" stroke-opacity="1.0">
<g>
<path d="M 10 154L 10 10"></path>
</g>
</g>
</g>
<g id="g-root-cp_-1_bg-left_8lk91qs0zyb-fill" data-item-order="-280779" transform="translate(14.0, 189.0)"></g>
<g id="g-root-cp_-1_bg-left_8lk91qs0zyb-stroke" data-item-order="-280779" transform="translate(14.0, 189.0)"></g>
<g id="g-root-cp_-1_bg-right_1lpw5611qs105q-fill" data-item-order="-280759" transform="translate(227.1875, 189.0)"></g>
<g id="g-root-cp_-1_bg-right_1lpw5611qs105q-stroke" data-item-order="-280759" transform="translate(227.1875, 189.0)"></g>
<g id="g-root-tx_inventor_8lk91qs10jw-fill" data-item-order="0" transform="translate(141.1640625, 38.0)">
<g id="tx_inventor_8lk91qs10jw-fill-merged" stroke="none" fill="#1f1d1a" fill-opacity="1.0">
<g>
<text transform="translate(199.078125, 10.0)" style="font-size:25px; font-family:'Playfair Display', serif; font-weight:bold; white-space:pre;">
<tspan x="-187.08" y="30" dominant-baseline="ideographic">Inventory Turnover</tspan>
</text>
</g>
</g>
</g>
<g id="g-root-tx_inventor_8lk91qs10jw-stroke" data-item-order="0" transform="translate(141.1640625, 38.0)"></g>
<g id="g-root-tx_43_v2z4fd1qs10r1-fill" data-item-order="0" transform="translate(94.8828125, 380.0)">
<g id="tx_43_v2z4fd1qs10r1-fill-merged" stroke="none" fill="#1f1d1a" fill-opacity="1.0">
<g>
<text transform="translate(85.8359375, 10.0)" style="font-size:40px; font-family:'Source Serif 4', serif; white-space:pre;">
<tspan x="-73.84" y="48" dominant-baseline="ideographic">43%</tspan>
</text>
</g>
</g>
</g>
<g id="g-root-tx_43_v2z4fd1qs10r1-stroke" data-item-order="0" transform="translate(94.8828125, 380.0)"></g>
<g id="g-root-tx_allbirds_1ha2n1l1qs10xu-fill" data-item-order="0" transform="translate(98.4921875, 452.0)">
<g id="tx_allbirds_1ha2n1l1qs10xu-fill-merged" stroke="none" fill="#969696" fill-opacity="1.0">
<g>
<text transform="translate(79.140625, 10.0)" style="font-size:20px; font-family:'Source Serif 4', serif; white-space:pre;">
<tspan x="-67.14" y="24" dominant-baseline="ideographic">Allbirds</tspan>
</text>
</g>
</g>
</g>
<g id="g-root-tx_allbirds_1ha2n1l1qs10xu-stroke" data-item-order="0" transform="translate(98.4921875, 452.0)"></g>
<g id="g-root-tx_inventor_1q6c4dl1qs0xz4-fill" data-item-order="0" transform="translate(71.8515625, 488.0)">
<g id="tx_inventor_1q6c4dl1qs0xz4-fill-merged" stroke="none" fill="#1f1d1a" fill-opacity="1.0">
<g>
<text transform="translate(131.296875, 10.0)" style="font-size:15px; font-family:'Source Serif 4', serif; white-space:pre;">
<tspan x="-119.3" y="18" dominant-baseline="ideographic">Inventory turnover</tspan>
</text>
</g>
</g>
</g>
<g id="g-root-tx_inventor_1q6c4dl1qs0xz4-stroke" data-item-order="0" transform="translate(71.8515625, 488.0)"></g>
<g id="g-root-ic_1_1q6c4dl1qs0y6m-fill" data-item-order="0" transform="translate(38.0, 164.25)"></g>
<g id="g-root-ic_1_1q6c4dl1qs0y6m-stroke" data-item-order="0" transform="translate(38.0, 164.25)">
<g id="ic_1_1q6c4dl1qs0y6m-stroke" fill="none" stroke-linecap="round" stroke-linejoin="round" stroke-miterlimit="4" stroke="#1f1d1a" stroke-width="2" stroke-opacity="1.0">
<g>
<path d="M 14.032 194L 198.031998 194M 46 194L 46 158C 46 155.790863 44.209141 154 42 154L 26 154C 23.790861 154 22 155.790863 22 158L 22 194M 94 194L 94 118C 94 115.790863 92.209137 114 90 114L 74 114C 71.790863 114 70 115.790863 70 118L 70 194M 142 194L 142 134C 142 131.790863 140.209137 130 138 130L 122 130C 119.790863 130 118 131.790863 118 134L 118 194M 190 194L 190 78C 190 75.790863 188.209137 74 186 74L 170 74C 167.790863 74 166 75.790863 166 78L 166 194M 182 18L 137.040009 66.447998C 132.768738 71.053535 126.197784 72.733826 120.239998 70.744003L 90.487999 60.816002C 85.230759 59.0634 79.440964 60.155987 75.183998 63.703999L 34 98M 150.031998 18L 182.031998 18L 182.031998 50"></path>
</g>
</g>
</g>
<g id="g-root-tx_75_1q6c4dl1qs58nd-fill" data-item-order="0" transform="translate(302.5546875, 380.0)">
<g id="tx_75_1q6c4dl1qs58nd-fill-merged" stroke="none" fill="#1f1d1a" fill-opacity="1.0">
<g>
<text transform="translate(99.109375, 10.0)" style="font-size:40px; font-family:'Source Serif 4', serif; white-space:pre;">
<tspan x="-87.11" y="48" dominant-baseline="ideographic">-75%</tspan>
</text>
</g>
</g>
</g>
<g id="g-root-tx_75_1q6c4dl1qs58nd-stroke" data-item-order="0" transform="translate(302.5546875, 380.0)"></g>
<g id="g-root-tx_brightbo_dcy23t1qs55vm-fill" data-item-order="0" transform="translate(293.984375, 452.0)">
<g id="tx_brightbo_dcy23t1qs55vm-fill-merged" stroke="none" fill="#969696" fill-opacity="1.0">
<g>
<text transform="translate(114.7578125, 10.0)" style="font-size:20px; font-family:'Source Serif 4', serif; white-space:pre;">
<tspan x="-102.76" y="24" dominant-baseline="ideographic">Bright Body</tspan>
</text>
</g>
</g>
</g>
<g id="g-root-tx_brightbo_dcy23t1qs55vm-stroke" data-item-order="0" transform="translate(293.984375, 452.0)"></g>
<g id="g-root-tx_timespen_hsrk891qs562x-fill" data-item-order="0" transform="translate(268.1484375, 488.0)">
<g id="tx_timespen_hsrk891qs562x-fill-merged" stroke="none" fill="#1f1d1a" fill-opacity="1.0">
<g>
<text transform="translate(165.078125, 10.0)" style="font-size:15px; font-family:'Source Serif 4', serif; white-space:pre;">
<tspan x="-153.08" y="18" dominant-baseline="ideographic">Time spent forecasting</tspan>
</text>
</g>
</g>
</g>
<g id="g-root-tx_timespen_hsrk891qs562x-stroke" data-item-order="0" transform="translate(268.1484375, 488.0)"></g>
<g id="g-root-ic_decr_v482ll1qs56a1-fill" data-item-order="0" transform="translate(251.18751525878906, 164.25)"></g>
<g id="g-root-ic_decr_v482ll1qs56a1-stroke" data-item-order="0" transform="translate(251.18751525878906, 164.25)">
<g id="ic_decr_v482ll1qs56a1-stroke" fill="none" stroke-linecap="round" stroke-linejoin="round" stroke-miterlimit="4" stroke="#1f1d1a" stroke-width="2" stroke-opacity="1.0">
<g>
<path d="M 197.999969 53.999992L 197.999969 93.999985L 157.999969 93.999985M 197.999969 93.999985L 158.607971 47.447994C 155.984024 44.34256 151.448181 43.699009 148.063965 45.951992L 136.103973 53.951992C 132.65126 56.256603 128.009399 55.537395 125.415977 52.295994L 97.999985 17.999998M 53.999992 97.999985L 53.999992 121.999977M 69.999992 197.999969L 73.999985 149.999969L 93.999985 149.999969L 93.999985 121.999977C 93.999985 99.9086 76.091377 81.999985 53.999992 81.999985C 31.908607 81.999985 14 99.9086 14 121.999977L 13.999999 149.999969L 33.999996 149.999969L 37.999996 197.999969ZM 29.871996 27.783997C 38.633144 36.870647 50.713593 42.002598 63.335987 41.999992C 69.662674 42.001438 75.923309 40.713924 81.735985 38.215996M 25.999996 41.999992C 25.999998 57.463966 38.536026 69.999992 53.999996 69.999992C 69.463966 69.999992 81.999985 57.463966 81.999985 41.999992C 81.999985 26.536024 69.463966 14.000001 53.999996 14.000001C 38.536026 14.000001 25.999998 26.536024 25.999998 41.999992Z"></path>
</g>
</g>
</g>
</g>
</g>
</svg>