<?xml version="1.0" encoding="utf-8" standalone="yes"?>
<!DOCTYPE svg PUBLIC "-//W3C//DTD SVG 1.1//EN" "http://www.w3.org/Graphics/SVG/1.1/DTD/svg11.dtd">
<svg version="1.1" xmlns="http://www.w3.org/2000/svg" xmlns:xlink="http://www.w3.org/1999/xlink" width="1301" height="552" viewBox="0 0 1301 552" style="fill:none; stroke:none; fill-rule:evenodd; clip-rule:evenodd; stroke-linecap:round; stroke-linejoin:round; stroke-miterlimit:1.5;">
<style class="text-font-style fontImports" data-font-family="Source Serif 4">
@import url(https://fonts.googleapis.com/css2?family=Playfair+Display:wght@400;700&amp;family=Source+Serif+4:wght@400;700&amp;display=block);
</style>

<rect id="" x="0" y="0" width="1300.797" height="552" style="fill:#ffffff;"></rect>
<g id="items" style="isolation:isolate;">
<g id="blend" style="mix-blend-mode:normal;">
<g id="g-root-sy_1_cu-1_1lqipxcmk7j7s-fill" data-item-order="-5442" transform="translate(391.546875, 260.4229736328125)">
<g id="sy_1_cu-1_1lqipxcmk7j7s-fill-merged" stroke="none" fill="url(#gradient-ffed4b-388605856)" fill-opacity="1.0">
<g>
<path d="M10 10 H58 V123.577 H10 V10 M330 120.577 H378 V123.577 H330 V120.577 M650 18.112 H698 V123.577 H650 V18.112"></path>
</g>
</g>
</g>
<g id="g-root-sy_1_cu-1_1lqipxcmk7j7s-stroke" data-item-order="-5442" transform="translate(391.546875, 260.4229736328125)">
<g id="sy_1_cu-1_1lqipxcmk7j7s-stroke" fill="none" stroke-linecap="round" stroke-linejoin="round" stroke-miterlimit="4" stroke="#484848" stroke-width="2" stroke-opacity="1.0">
<g>
<path d="M 10 10.000015L 58 10.000015L 58 123.577019L 10 123.577019ZM 330 120.577011L 378 120.577011L 378 123.577011L 330 123.577011ZM 650 18.112015L 698 18.112015L 698 123.577011L 650 123.577011Z"></path>
</g>
</g>
</g>
<g id="g-root-sy_2_cu-2_1um5q68mk7jew-fill" data-item-order="-5438" transform="translate(343.546875, 341.54901123046875)">
<g id="sy_2_cu-2_1um5q68mk7jew-fill-merged" stroke="none" fill="url(#gradient-fdac61-417561483)" fill-opacity="1.0">
<g>
<path d="M10 10 H58 V42.451 H10 V10 M330 39.451 H378 V42.451 H330 V39.451 M650 39.451 H698 V42.451 H650 V39.451"></path>
</g>
</g>
</g>
<g id="g-root-sy_2_cu-2_1um5q68mk7jew-stroke" data-item-order="-5438" transform="translate(343.546875, 341.54901123046875)">
<g id="sy_2_cu-2_1um5q68mk7jew-stroke" fill="none" stroke-linecap="round" stroke-linejoin="round" stroke-miterlimit="4" stroke="#484848" stroke-width="2" stroke-opacity="1.0">
<g>
<path d="M 10 10L 58 10L 58 42.451L 10 42.451ZM 330 39.450989L 378 39.450989L 378 42.450989L 330 42.450989ZM 650 39.450989L 698 39.450989L 698 42.450989L 650 42.450989Z"></path>
</g>
</g>
</g>
<g id="g-root-sy_3_cu-3_18f27k0mk7jm0-fill" data-item-order="-5434" transform="translate(295.546875, 317.21099853515625)">
<g id="sy_3_cu-3_18f27k0mk7jm0-fill-merged" stroke="none" fill="url(#gradient-fe8884-345532732)" fill-opacity="1.0">
<g>
<path d="M10 10 H58 V66.789 H10 V10 M330 22.169 H378 V66.789 H330 V22.169 M650 63.789 H698 V66.789 H650 V63.789"></path>
</g>
</g>
</g>
<g id="g-root-sy_3_cu-3_18f27k0mk7jm0-stroke" data-item-order="-5434" transform="translate(295.546875, 317.21099853515625)">
<g id="sy_3_cu-3_18f27k0mk7jm0-stroke" fill="none" stroke-linecap="round" stroke-linejoin="round" stroke-miterlimit="4" stroke="#484848" stroke-width="2" stroke-opacity="1.0">
<g>
<path d="M 10 10L 58 10L 58 66.789001L 10 66.789001ZM 330 22.169006L 378 22.169006L 378 66.789005L 330 66.789005ZM 650 63.789001L 698 63.789001L 698 66.789001L 650 66.789001Z"></path>
</g>
</g>
</g>
<g id="g-root-sy_4_cu-4_dcboowmk7jt8-fill" data-item-order="-5430" transform="translate(247.546875, 264.47900390625)">
<g id="sy_4_cu-4_dcboowmk7jt8-fill-merged" stroke="none" fill="url(#gradient-fb85cc-419033426)" fill-opacity="1.0">
<g>
<path d="M10 10 H58 V119.521 H10 V10 M330 116.521 H378 V119.521 H330 V116.521 M650 116.521 H698 V119.521 H650 V116.521"></path>
</g>
</g>
</g>
<g id="g-root-sy_4_cu-4_dcboowmk7jt8-stroke" data-item-order="-5430" transform="translate(247.546875, 264.47900390625)">
<g id="sy_4_cu-4_dcboowmk7jt8-stroke" fill="none" stroke-linecap="round" stroke-linejoin="round" stroke-miterlimit="4" stroke="#484848" stroke-width="2" stroke-opacity="1.0">
<g>
<path d="M 10 10L 58 10L 58 119.521004L 10 119.521004ZM 330 116.520996L 378 116.520996L 378 119.520996L 330 119.520996ZM 650 116.520996L 698 116.520996L 698 119.520996L 650 119.520996Z"></path>
</g>
</g>
</g>
<g id="g-root-sy_5_cu-5_1hap7swmk7jt8-fill" data-item-order="-5426" transform="translate(199.546875, 371.0)">
<g id="sy_5_cu-5_1hap7swmk7jt8-fill-merged" stroke="none" fill="url(#gradient-d98afd-356709479)" fill-opacity="1.0">
<g>
<path d="M10 10 H58 V13 H10 V10 M330 10 H378 V13 H330 V10 M650 10 H698 V13 H650 V10"></path>
</g>
</g>
</g>
<g id="g-root-sy_5_cu-5_1hap7swmk7jt8-stroke" data-item-order="-5426" transform="translate(199.546875, 371.0)">
<g id="sy_5_cu-5_1hap7swmk7jt8-stroke" fill="none" stroke-linecap="round" stroke-linejoin="round" stroke-miterlimit="4" stroke="#484848" stroke-width="2" stroke-opacity="1.0">
<g>
<path d="M 10 10L 58 10L 58 13L 10 13ZM 330 10L 378 10L 378 13L 330 13ZM 650 10L 698 10L 698 13L 650 13Z"></path>
</g>
</g>
</g>
<g id="g-root-sy_6_cu-6_qns728mk7k05-fill" data-item-order="-5422" transform="translate(151.546875, 86.0)">
<g id="sy_6_cu-6_qns728mk7k05-fill-merged" stroke="none" fill="url(#gradient-a28bff-185831087)" fill-opacity="1.0">
<g>
<path d="M10 295 H58 V298 H10 V295 M330 10 H378 V298 H330 V10 M650 295 H698 V298 H650 V295"></path>
</g>
</g>
</g>
<g id="g-root-sy_6_cu-6_qns728mk7k05-stroke" data-item-order="-5422" transform="translate(151.546875, 86.0)">
<g id="sy_6_cu-6_qns728mk7k05-stroke" fill="none" stroke-linecap="round" stroke-linejoin="round" stroke-miterlimit="4" stroke="#484848" stroke-width="2" stroke-opacity="1.0">
<g>
<path d="M 10 295L 58 295L 58 298L 10 298ZM 330 10L 378 10L 378 298L 330 298ZM 650 295L 698 295L 698 298L 650 298Z"></path>
</g>
</g>
</g>
<g id="g-root-sy_1_legend-1_4goog0mk7k75-fill" data-item-order="-5386" transform="translate(1135.546875, 302.0)">
<g id="sy_1_legend-1_4goog0mk7k75-fill-merged" stroke="none" fill="url(#gradient-ffed4b-388605856)" fill-opacity="1.0">
<g>
<path d="M10 10 H34 V34 H10 V10"></path>
</g>
</g>
</g>
<g id="g-root-sy_1_legend-1_4goog0mk7k75-stroke" data-item-order="-5386" transform="translate(1135.546875, 302.0)">
<g id="sy_1_legend-1_4goog0mk7k75-stroke" fill="none" stroke-linecap="round" stroke-linejoin="round" stroke-miterlimit="4" stroke="#484848" stroke-width="2" stroke-opacity="1.0">
<g>
<path d="M 10 10L 34 10L 34 34L 10 34Z"></path>
</g>
</g>
</g>
<g id="g-root-sy_2_legend-2_zjf7b4mk7k7g-fill" data-item-order="-5382" transform="translate(1135.546875, 254.0)">
<g id="sy_2_legend-2_zjf7b4mk7k7g-fill-merged" stroke="none" fill="url(#gradient-fdac61-417561483)" fill-opacity="1.0">
<g>
<path d="M10 10 H34 V34 H10 V10"></path>
</g>
</g>
</g>
<g id="g-root-sy_2_legend-2_zjf7b4mk7k7g-stroke" data-item-order="-5382" transform="translate(1135.546875, 254.0)">
<g id="sy_2_legend-2_zjf7b4mk7k7g-stroke" fill="none" stroke-linecap="round" stroke-linejoin="round" stroke-miterlimit="4" stroke="#484848" stroke-width="2" stroke-opacity="1.0">
<g>
<path d="M 10 10L 34 10L 34 34L 10 34Z"></path>
</g>
</g>
</g>
<g id="g-root-sy_3_legend-3_v6bkmk7kea-fill" data-item-order="-5378" transform="translate(1135.546875, 206.0)">
<g id="sy_3_legend-3_v6bkmk7kea-fill-merged" stroke="none" fill="url(#gradient-fe8884-345532732)" fill-opacity="1.0">
<g>
<path d="M10 10 H34 V34 H10 V10"></path>
</g>
</g>
</g>
<g id="g-root-sy_3_legend-3_v6bkmk7kea-stroke" data-item-order="-5378" transform="translate(1135.546875, 206.0)">
<g id="sy_3_legend-3_v6bkmk7kea-stroke" fill="none" stroke-linecap="round" stroke-linejoin="round" stroke-miterlimit="4" stroke="#484848" stroke-width="2" stroke-opacity="1.0">
<g>
<path d="M 10 10L 34 10L 34 34L 10 34Z"></path>
</g>
</g>
</g>
<g id="g-root-sy_4_legend-4_13z8pfkmk7kel-fill" data-item-order="-5374" transform="translate(1135.546875, 158.0)">
<g id="sy_4_legend-4_13z8pfkmk7kel-fill-merged" stroke="none" fill="url(#gradient-fb85cc-419033426)" fill-opacity="1.0">
<g>
<path d="M10 10 H34 V34 H10 V10"></path>
</g>
</g>
</g>
<g id="g-root-sy_4_legend-4_13z8pfkmk7kel-stroke" data-item-order="-5374" transform="translate(1135.546875, 158.0)">
<g id="sy_4_legend-4_13z8pfkmk7kel-stroke" fill="none" stroke-linecap="round" stroke-linejoin="round" stroke-miterlimit="4" stroke="#484848" stroke-width="2" stroke-opacity="1.0">
<g>
<path d="M 10 10L 34 10L 34 34L 10 34Z"></path>
</g>
</g>
</g>
<g id="g-root-sy_5_legend-5_8x4nnkmk7hfr-fill" data-item-order="-5370" transform="translate(1135.546875, 110.0)">
<g id="sy_5_legend-5_8x4nnkmk7hfr-fill-merged" stroke="none" fill="url(#gradient-d98afd-356709479)" fill-opacity="1.0">
<g>
<path d="M10 10 H34 V34 H10 V10"></path>
</g>
</g>
</g>
<g id="g-root-sy_5_legend-5_8x4nnkmk7hfr-stroke" data-item-order="-5370" transform="translate(1135.546875, 110.0)">
<g id="sy_5_legend-5_8x4nnkmk7hfr-stroke" fill="none" stroke-linecap="round" stroke-linejoin="round" stroke-miterlimit="4" stroke="#484848" stroke-width="2" stroke-opacity="1.0">
<g>
<path d="M 10 10L 34 10L 34 34L 10 34Z"></path>
</g>
</g>
</g>
<g id="g-root-sy_6_legend-6_13zv6iomk7hfy-fill" data-item-order="-5366" transform="translate(1135.546875, 62.0)">
<defs>
<linearGradient id="gradient-ffed4b-388605856" x2="0" y2="1">
<stop offset="0" stop-color="#f5f1ea"></stop>
<stop offset="1" stop-color="#de8431"></stop>
</linearGradient>
<linearGradient id="gradient-fdac61-417561483" x2="0" y2="1">
<stop offset="0" stop-color="#f5f1ea"></stop>
<stop offset="1" stop-color="#de8431"></stop>
</linearGradient>
<linearGradient id="gradient-fe8884-345532732" x2="0" y2="1">
<stop offset="0" stop-color="#f5f1ea"></stop>
<stop offset="1" stop-color="#de8431"></stop>
</linearGradient>
<linearGradient id="gradient-fb85cc-419033426" x2="0" y2="1">
<stop offset="0" stop-color="#f5f1ea"></stop>
<stop offset="1" stop-color="#de8431"></stop>
</linearGradient>
<linearGradient id="gradient-d98afd-356709479" x2="0" y2="1">
<stop offset="0" stop-color="#f5f1ea"></stop>
<stop offset="1" stop-color="#de8431"></stop>
</linearGradient>
<linearGradient id="gradient-a28bff-185831087" x2="0" y2="1">
<stop offset="0" stop-color="#f5f1ea"></stop>
<stop offset="1" stop-color="#de8431"></stop>
</linearGradient>
</defs>
<g id="sy_6_legend-6_13zv6iomk7hfy-fill-merged" stroke="none" fill="url(#gradient-a28bff-185831087)" fill-opacity="1.0">
<g>
<path d="M10 10 H34 V34 H10 V10"></path>
</g>
</g>
</g>
<g id="g-root-sy_6_legend-6_13zv6iomk7hfy-stroke" data-item-order="-5366" transform="translate(1135.546875, 62.0)">
<g id="sy_6_legend-6_13zv6iomk7hfy-stroke" fill="none" stroke-linecap="round" stroke-linejoin="round" stroke-miterlimit="4" stroke="#484848" stroke-width="2" stroke-opacity="1.0">
<g>
<path d="M 10 10L 34 10L 34 34L 10 34Z"></path>
</g>
</g>
</g>
<g id="g-root-sy_-1_hAxis_4hb5j4mk7hmo-fill" data-item-order="-5347" transform="translate(119.546875, 80.0)"></g>
<g id="g-root-sy_-1_hAxis_4hb5j4mk7hmo-stroke" data-item-order="-5347" transform="translate(119.546875, 80.0)">
<g id="sy_-1_hAxis_4hb5j4mk7hmo-stroke" fill="none" stroke-linecap="round" stroke-linejoin="round" stroke-miterlimit="4" stroke="#484848" stroke-width="2" stroke-opacity="1.0">
<g>
<path d="M 10 304L 10 12"></path>
<path d="M 16.5 18L 10 11.5L 3.5 18" stroke-dasharray="none"></path>
</g>
</g>
</g>
<g id="g-root-sy_-1_vAxis_zk1oe8mk7hmx-fill" data-item-order="-5343" transform="translate(119.546875, 374.0)"></g>
<g id="g-root-sy_-1_vAxis_zk1oe8mk7hmx-stroke" data-item-order="-5343" transform="translate(119.546875, 374.0)">
<g id="sy_-1_vAxis_zk1oe8mk7hmx-stroke" fill="none" stroke-linecap="round" stroke-linejoin="round" stroke-miterlimit="4" stroke="#484848" stroke-width="2" stroke-opacity="1.0">
<g>
<path d="M 10 10L 1006 10"></path>
<path d="M 1000 16.5L 1006.5 10L 1000 3.5" stroke-dasharray="none"></path>
</g>
</g>
</g>
<g id="g-root-tx_socialme_146qegwmk7j7u-fill" data-item-order="0" transform="translate(1123.546875, 338.0)">
<g id="tx_socialme_146qegwmk7j7u-fill-merged" stroke="none" fill="#484848" fill-opacity="1.0">
<g>
<text transform="translate(10.0, 58.0)" style="font-size:20px; font-family:'Source Serif 4', serif; white-space:pre;">
<tspan x="2" y="-24" dominant-baseline="ideographic">Social </tspan>
<tspan x="2" y="0" dominant-baseline="ideographic">Media </tspan>
<tspan x="2" y="24" dominant-baseline="ideographic">Platform</tspan>
</text>
</g>
</g>
</g>
<g id="g-root-tx_socialme_146qegwmk7j7u-stroke" data-item-order="0" transform="translate(1123.546875, 338.0)"></g>
<g id="g-root-tx_28_vb3e80mk7jex-fill" data-item-order="0" transform="translate(404.9375, 308.21148681640625)">
<g id="tx_28_vb3e80mk7jex-fill-merged" stroke="none" fill="#484848" fill-opacity="1.0">
<g>
<text transform="translate(30.84375, 7.0)" style="font-size:15px; font-family:'Source Serif 4', serif; font-weight:bold; white-space:pre;">
<tspan x="-18.84" y="21" dominant-baseline="ideographic">28</tspan>
</text>
</g>
</g>
</g>
<g id="g-root-tx_28_vb3e80mk7jex-stroke" data-item-order="0" transform="translate(404.9375, 308.21148681640625)"></g>
<g id="g-root-tx_26_vb3e80mk7jm4-fill" data-item-order="0" transform="translate(1044.9375, 312.2674865722656)">
<g id="tx_26_vb3e80mk7jm4-fill-merged" stroke="none" fill="#484848" fill-opacity="1.0">
<g>
<text transform="translate(30.84375, 7.0)" style="font-size:15px; font-family:'Source Serif 4', serif; font-weight:bold; white-space:pre;">
<tspan x="-18.84" y="21" dominant-baseline="ideographic">26</tspan>
</text>
</g>
</g>
</g>
<g id="g-root-tx_26_vb3e80mk7jm4-stroke" data-item-order="0" transform="translate(1044.9375, 312.2674865722656)"></g>
<g id="g-root-tx_8_1utnf7kmk7jm3-fill" data-item-order="0" transform="translate(361.2421875, 348.7745056152344)">
<g id="tx_8_1utnf7kmk7jm3-fill-merged" stroke="none" fill="#484848" fill-opacity="1.0">
<g>
<text transform="translate(20.921875, 7.0)" style="font-size:15px; font-family:'Source Serif 4', serif; font-weight:bold; white-space:pre;">
<tspan x="-8.92" y="21" dominant-baseline="ideographic">8</tspan>
</text>
</g>
</g>
</g>
<g id="g-root-tx_8_1utnf7kmk7jm3-stroke" data-item-order="0" transform="translate(361.2421875, 348.7745056152344)"></g>
<g id="g-root-tx_14_zqwwcgmk7jt3-fill" data-item-order="0" transform="translate(308.9375, 336.6054992675781)">
<g id="tx_14_zqwwcgmk7jt3-fill-merged" stroke="none" fill="#484848" fill-opacity="1.0">
<g>
<text transform="translate(30.84375, 7.0)" style="font-size:15px; font-family:'Source Serif 4', serif; font-weight:bold; white-space:pre;">
<tspan x="-18.84" y="21" dominant-baseline="ideographic">14</tspan>
</text>
</g>
</g>
</g>
<g id="g-root-tx_14_zqwwcgmk7jt3-stroke" data-item-order="0" transform="translate(308.9375, 336.6054992675781)"></g>
<g id="g-root-tx_11_vb3e80mk7k00-fill" data-item-order="0" transform="translate(628.9375, 342.69000244140625)">
<g id="tx_11_vb3e80mk7k00-fill-merged" stroke="none" fill="#484848" fill-opacity="1.0">
<g>
<text transform="translate(30.84375, 7.0)" style="font-size:15px; font-family:'Source Serif 4', serif; font-weight:bold; white-space:pre;">
<tspan x="-18.84" y="21" dominant-baseline="ideographic">11</tspan>
</text>
</g>
</g>
</g>
<g id="g-root-tx_11_vb3e80mk7k00-stroke" data-item-order="0" transform="translate(628.9375, 342.69000244140625)"></g>
<g id="g-root-tx_27_1qdtx34mk7k09-fill" data-item-order="0" transform="translate(260.9375, 310.239501953125)">
<g id="tx_27_1qdtx34mk7k09-fill-merged" stroke="none" fill="#484848" fill-opacity="1.0">
<g>
<text transform="translate(30.84375, 7.0)" style="font-size:15px; font-family:'Source Serif 4', serif; font-weight:bold; white-space:pre;">
<tspan x="-18.84" y="21" dominant-baseline="ideographic">27</tspan>
</text>
</g>
</g>
</g>
<g id="g-root-tx_27_1qdtx34mk7k09-stroke" data-item-order="0" transform="translate(260.9375, 310.239501953125)"></g>
<g id="g-root-tx_71_qv9w3kmk7k78-fill" data-item-order="0" transform="translate(484.9375, 220.99998474121094)">
<g id="tx_71_qv9w3kmk7k78-fill-merged" stroke="none" fill="#484848" fill-opacity="1.0">
<g>
<text transform="translate(30.84375, 7.0)" style="font-size:15px; font-family:'Source Serif 4', serif; font-weight:bold; white-space:pre;">
<tspan x="-18.84" y="21" dominant-baseline="ideographic">71</tspan>
</text>
</g>
</g>
</g>
<g id="g-root-tx_71_qv9w3kmk7k78-stroke" data-item-order="0" transform="translate(484.9375, 220.99998474121094)"></g>
<g id="g-root-tx_adspendy_1utnf7kmk7k78-fill" data-item-order="0" transform="translate(245.953125, 395.0)">
<g id="tx_adspendy_1utnf7kmk7k78-fill-merged" stroke="none" fill="#484848" fill-opacity="1.0">
<g>
<text transform="translate(105.5, 10.0)" style="font-size:15px; font-family:'Source Serif 4', serif; font-weight:bold; white-space:pre;">
<tspan x="-93.5" y="18" dominant-baseline="ideographic">Ad Spend YoY</tspan>
</text>
</g>
</g>
</g>
<g id="g-root-tx_adspendy_1utnf7kmk7k78-stroke" data-item-order="0" transform="translate(245.953125, 395.0)"></g>
<g id="g-root-tx_cpmsyoy_18mjwlcmk7kee-fill" data-item-order="0" transform="translate(578.234375, 395.0)">
<g id="tx_cpmsyoy_18mjwlcmk7kee-fill-merged" stroke="none" fill="#484848" fill-opacity="1.0">
<g>
<text transform="translate(81.265625, 10.0)" style="font-size:15px; font-family:'Source Serif 4', serif; font-weight:bold; white-space:pre;">
<tspan x="-69.27" y="18" dominant-baseline="ideographic">CPMs YoY</tspan>
</text>
</g>
</g>
</g>
<g id="g-root-tx_cpmsyoy_18mjwlcmk7kee-stroke" data-item-order="0" transform="translate(578.234375, 395.0)"></g>
<g id="g-root-tx_cpc_i09cxsmk7hfn-fill" data-item-order="0" transform="translate(918.8984375, 395.0)">
<g id="tx_cpc_i09cxsmk7hfn-fill-merged" stroke="none" fill="#484848" fill-opacity="1.0">
<g>
<text transform="translate(40.1484375, 10.0)" style="font-size:15px; font-family:'Source Serif 4', serif; font-weight:bold; white-space:pre;">
<tspan x="-28.15" y="18" dominant-baseline="ideographic">CPC</tspan>
</text>
</g>
</g>
</g>
<g id="g-root-tx_cpc_i09cxsmk7hfn-stroke" data-item-order="0" transform="translate(918.8984375, 395.0)"></g>
<g id="g-root-tx_instagra_1lymw1smk7hfu-fill" data-item-order="0" transform="translate(1171.546875, 302.0)">
<g id="tx_instagra_1lymw1smk7hfu-fill-merged" stroke="none" fill="#484848" fill-opacity="1.0">
<g>
<text transform="translate(10.0, 10.0)" style="font-size:20px; font-family:'Playfair Display', serif; font-weight:bold; white-space:pre;">
<tspan x="2" y="24" dominant-baseline="ideographic">Instagram</tspan>
</text>
</g>
</g>
</g>
<g id="g-root-tx_instagra_1lymw1smk7hfu-stroke" data-item-order="0" transform="translate(1171.546875, 302.0)"></g>
<g id="g-root-tx_facebook_vbpvb4mk7hmv-fill" data-item-order="0" transform="translate(1171.546875, 253.99998474121094)">
<g id="tx_facebook_vbpvb4mk7hmv-fill-merged" stroke="none" fill="#484848" fill-opacity="1.0">
<g>
<text transform="translate(10.0, 10.0)" style="font-size:20px; font-family:'Playfair Display', serif; font-weight:bold; white-space:pre;">
<tspan x="2" y="24" dominant-baseline="ideographic">Facebook</tspan>
</text>
</g>
</g>
</g>
<g id="g-root-tx_facebook_vbpvb4mk7hmv-stroke" data-item-order="0" transform="translate(1171.546875, 253.99998474121094)"></g>
<g id="g-root-tx_percenta_zqwwcgmk7j0k-fill" data-item-order="0" transform="translate(14.0, 49.99995803833008)">
<g id="tx_percenta_zqwwcgmk7j0k-fill-merged" stroke="none" fill="#484848" fill-opacity="1.0">
<g>
<text transform="translate(218.09375, 10.0)" style="font-size:20px; font-family:'Source Serif 4', serif; white-space:pre;">
<tspan x="-206.09" y="24" dominant-baseline="ideographic">Percentage Change (%)</tspan>
</text>
</g>
</g>
</g>
<g id="g-root-tx_percenta_zqwwcgmk7j0k-stroke" data-item-order="0" transform="translate(14.0, 49.99995803833008)"></g>
<g id="g-root-tx_pinteres_147cvk0mk7hu4-fill" data-item-order="0" transform="translate(1171.546875, 157.99996948242188)">
<g id="tx_pinteres_147cvk0mk7hu4-fill-merged" stroke="none" fill="#484848" fill-opacity="1.0">
<g>
<text transform="translate(10.0, 10.0)" style="font-size:20px; font-family:'Playfair Display', serif; font-weight:bold; white-space:pre;">
<tspan x="2" y="24" dominant-baseline="ideographic">Pinterest</tspan>
</text>
</g>
</g>
</g>
<g id="g-root-tx_pinteres_147cvk0mk7hu4-stroke" data-item-order="0" transform="translate(1171.546875, 157.99996948242188)"></g>
<g id="g-root-tx_snapchat_mg2v28mk7i10-fill" data-item-order="0" transform="translate(1171.546875, 109.99996948242188)">
<g id="tx_snapchat_mg2v28mk7i10-fill-merged" stroke="none" fill="#484848" fill-opacity="1.0">
<g>
<text transform="translate(10.0, 10.0)" style="font-size:20px; font-family:'Playfair Display', serif; font-weight:bold; white-space:pre;">
<tspan x="2" y="24" dominant-baseline="ideographic">Snapchat</tspan>
</text>
</g>
</g>
</g>
<g id="g-root-tx_snapchat_mg2v28mk7i10-stroke" data-item-order="0" transform="translate(1171.546875, 109.99996948242188)"></g>
<g id="g-root-tx_reddit_1qege68mk7i15-fill" data-item-order="0" transform="translate(1171.546875, 61.99995803833008)">
<g id="tx_reddit_1qege68mk7i15-fill-merged" stroke="none" fill="#484848" fill-opacity="1.0">
<g>
<text transform="translate(10.0, 10.0)" style="font-size:20px; font-family:'Playfair Display', serif; font-weight:bold; white-space:pre;">
<tspan x="2" y="24" dominant-baseline="ideographic">Reddit</tspan>
</text>
</g>
</g>
</g>
<g id="g-root-tx_reddit_1qege68mk7i15-stroke" data-item-order="0" transform="translate(1171.546875, 61.99995803833008)"></g>
<g id="g-root-tx_q12026pa_m8l60wmk7htx-fill" data-item-order="0" transform="translate(447.90625, 434.0)">
<g id="tx_q12026pa_m8l60wmk7htx-fill-merged" stroke="none" fill="#484848" fill-opacity="1.0">
<g>
<text transform="translate(364.9296875, 25.0)" style="font-size:25px; font-family:'Playfair Display', serif; font-weight:bold; white-space:pre;">
<tspan x="-352.93" y="15" dominant-baseline="ideographic">Q1 2026 Paid Social Channel </tspan>
<tspan x="-260.63" y="45" dominant-baseline="ideographic">Performance</tspan>
</text>
</g>
</g>
</g>
<g id="g-root-tx_q12026pa_m8l60wmk7htx-stroke" data-item-order="0" transform="translate(447.90625, 434.0)"></g>
<g id="g-root-tx_tiktok_1uu9waomk7hmr-fill" data-item-order="0" transform="translate(1171.546875, 205.99996948242188)">
<g id="tx_tiktok_1uu9waomk7hmr-fill-merged" stroke="none" fill="#484848" fill-opacity="1.0">
<g>
<text transform="translate(10.0, 10.0)" style="font-size:20px; font-family:'Playfair Display', serif; font-weight:bold; white-space:pre;">
<tspan x="2" y="24" dominant-baseline="ideographic">TikTok</tspan>
</text>
</g>
</g>
</g>
<g id="g-root-tx_tiktok_1uu9waomk7hmr-stroke" data-item-order="0" transform="translate(1171.546875, 205.99996948242188)"></g>
</g>
</g>
</svg>