<?xml version="1.0" encoding="utf-8" standalone="yes"?>
<!DOCTYPE svg PUBLIC "-//W3C//DTD SVG 1.1//EN" "http://www.w3.org/Graphics/SVG/1.1/DTD/svg11.dtd">
<svg version="1.1" xmlns="http://www.w3.org/2000/svg" xmlns:xlink="http://www.w3.org/1999/xlink" width="888" height="618" viewBox="0 0 888 618" style="fill:none; stroke:none; fill-rule:evenodd; clip-rule:evenodd; stroke-linecap:round; stroke-linejoin:round; stroke-miterlimit:1.5;">
<style class="text-font-style fontImports" data-font-family="Source Serif 4">
@import url(https://fonts.googleapis.com/css2?family=Playfair+Display:wght@400;700&amp;family=Source+Serif+4:wght@400;700&amp;display=block);
</style>
<rect id="" x="0" y="0" width="888" height="618" style="fill:#ffffff;"></rect>
<g id="items" style="isolation:isolate;">
<g id="blend" style="mix-blend-mode:normal;">
<g id="g-root-cp_1_lines-1_hu12eb5n7i1a-fill" data-item-order="-428528" transform="translate(14.0, 116.0)">
<g id="cp_1_lines-1_hu12eb5n7i1a-fill-merged" stroke="none" fill="url(#gradient-64edab-300750244)" fill-opacity="1.0">
<g>
<path d="M202 370C202 376.627 196.627 382 190 382 H22C15.373 382 10 376.627 10 370 V22C10 15.373 15.373 10 22 10 H190C196.627 10 202 15.373 202 22 V370"></path>
</g>
</g>
</g>
<g id="g-root-cp_1_lines-1_hu12eb5n7i1a-stroke" data-item-order="-428528" transform="translate(14.0, 116.0)">
<g id="cp_1_lines-1_hu12eb5n7i1a-stroke" fill="none" stroke-linecap="round" stroke-linejoin="round" stroke-miterlimit="4" stroke="#484848" stroke-width="2" stroke-opacity="1.0">
<g>
<path d="M 190 10C 196.6274 10 202 15.3726 202 22M 10 22L 10 370.000031M 202 370.000031L 202 22M 190 382L 21.999998 382M 21.999998 10L 190 10M 10 22C 10 15.3726 15.3726 10 22 10M 22 382C 15.3726 382 10 376.6274 10 370M 190 382C 196.6274 382 202 376.6274 202 370"></path>
</g>
</g>
</g>
<g id="g-root-cp_1_donut-unfilled-1_18gy34z5n7ifh-fill" data-item-order="-428483" transform="translate(38.0, 296.0)"></g>
<g id="g-root-cp_1_donut-unfilled-1_18gy34z5n7ifh-stroke" data-item-order="-428483" transform="translate(38.0, 296.0)">
<g id="cp_1_donut-unfilled-1_18gy34z5n7ifh-stroke" fill="none" stroke-linecap="round" stroke-linejoin="round" stroke-miterlimit="4" stroke="#484848" stroke-width="2" stroke-opacity="1.0">
<g>
<path d=""></path>
</g>
</g>
</g>
<g id="g-root-cp_1_donut-filled-1_1lselib5n7imk-fill" data-item-order="-428480" transform="translate(38.0, 296.0)">
<g id="cp_1_donut-filled-1_1lselib5n7imk-fill-merged" stroke="none" fill="url(#gradient-595959-232476331)" fill-opacity="1.0">
<g>
<path d="M82 10C121.765 10 154 42.236 154 82C154 121.765 121.765 154 82 154C42.236 154 10 121.765 10 82C10 42.236 42.236 10 82 10 M82 22C48.863 22 22 48.863 22 82C22 115.137 48.863 142 82 142C115.137 142 142 115.137 142 82C142 48.863 115.137 22 82 22"></path>
</g>
</g>
</g>
<g id="g-root-cp_1_donut-filled-1_1lselib5n7imk-stroke" data-item-order="-428480" transform="translate(38.0, 296.0)">
<g id="cp_1_donut-filled-1_1lselib5n7imk-stroke" fill="none" stroke-linecap="round" stroke-linejoin="round" stroke-miterlimit="4" stroke="#484848" stroke-width="2" stroke-opacity="1.0">
<g>
<path d="M 82 10C 121.764503 10.000001 154.000001 42.235499 154.000001 82.000001C 154.000001 121.764503 121.764503 154.000001 82.000001 154.000001C 42.235499 154.000001 10.000001 121.764503 10.000001 82.000001C 10.000001 42.235499 42.235499 10.000001 82.000001 10.000001M 82 22C 48.862919 22.000004 22.000004 48.862919 22.000004 82.000004C 22.000004 115.137089 48.862919 142.000004 82.000004 142.000004C 115.137089 142.000004 142.000004 115.137089 142.000004 82.000004C 142.000004 48.862919 115.137089 22.000004 82.000004 22.000004Z"></path>
</g>
</g>
</g>
<g id="g-root-cp_2_lines-2_qpo2n75n7jeq-fill" data-item-order="-428466" transform="translate(230.0, 116.0)">
<g id="cp_2_lines-2_qpo2n75n7jeq-fill-merged" stroke="none" fill="url(#gradient-bceb57-510249182)" fill-opacity="1.0">
<g>
<path d="M202 370C202 376.627 196.627 382 190 382 H22C15.373 382 10 376.627 10 370 V22C10 15.373 15.373 10 22 10 H190C196.627 10 202 15.373 202 22 V370"></path>
</g>
</g>
</g>
<g id="g-root-cp_2_lines-2_qpo2n75n7jeq-stroke" data-item-order="-428466" transform="translate(230.0, 116.0)">
<g id="cp_2_lines-2_qpo2n75n7jeq-stroke" fill="none" stroke-linecap="round" stroke-linejoin="round" stroke-miterlimit="4" stroke="#484848" stroke-width="2" stroke-opacity="1.0">
<g>
<path d="M 190 10C 196.6274 10 202 15.3726 202 22M 10 22L 10 370.000031M 202 370.000031L 202 22M 190 382L 22 382M 22 10L 190 10M 10 22C 10 15.3726 15.3726 10 22 10M 22 382C 15.3726 382 10 376.6274 10 370M 190 382C 196.6274 382 202 376.6274 202 370"></path>
</g>
</g>
</g>
<g id="g-root-cp_2_donut-unfilled-2_8ye25f5n7jsx-fill" data-item-order="-428421" transform="translate(253.9928741455078, 296.0)"></g>
<g id="g-root-cp_2_donut-unfilled-2_8ye25f5n7jsx-stroke" data-item-order="-428421" transform="translate(253.9928741455078, 296.0)">
<g id="cp_2_donut-unfilled-2_8ye25f5n7jsx-stroke" fill="none" stroke-linecap="round" stroke-linejoin="round" stroke-miterlimit="4" stroke="#484848" stroke-width="2" stroke-opacity="1.0">
<g>
<path d="M 137.484026 127.8945C 116.174477 153.653347 79.937633 161.355734 49.993317 146.491246C 20.049001 131.626757 4.275421 98.106169 11.909379 65.5587C 19.543338 33.01123 48.576376 9.999965 82.007126 10M 82.007126 22C 54.148174 21.999991 29.953991 41.176058 23.592375 68.29895C 17.230758 95.421841 30.37542 123.355654 55.329019 135.742716C 80.282618 148.129779 110.479981 141.711113 128.237932 120.245406"></path>
</g>
</g>
</g>
<g id="g-root-cp_2_donut-filled-2_hu12eb5n7k01-fill" data-item-order="-428418" transform="translate(326.0, 296.0)">
<g id="cp_2_donut-filled-2_hu12eb5n7k01-fill-merged" stroke="none" fill="url(#gradient-595959-232476331)" fill-opacity="1.0">
<g>
<path d="M10 10C37.891 10 63.272 26.108 75.147 51.344C87.023 76.58 83.255 106.404 65.477 127.895L56.231 120.245C71.046 102.337 74.186 77.483 64.29 56.453C54.394 35.423 33.242 22 10 22 V10"></path>
</g>
</g>
</g>
<g id="g-root-cp_2_donut-filled-2_hu12eb5n7k01-stroke" data-item-order="-428418" transform="translate(326.0, 296.0)">
<g id="cp_2_donut-filled-2_hu12eb5n7k01-stroke" fill="none" stroke-linecap="round" stroke-linejoin="round" stroke-miterlimit="4" stroke="#484848" stroke-width="2" stroke-opacity="1.0">
<g>
<path d="M 10 10C 37.890559 10.000029 63.272267 26.107774 75.147482 51.343909C 87.022697 76.580045 83.255002 106.404448 65.476901 127.894501L 56.2308 120.2454C 71.045888 102.337021 74.185626 77.483344 64.289601 56.453232C 54.393577 35.42312 33.242141 22.000009 10.000004 22.000001Z"></path>
</g>
</g>
</g>
<g id="g-root-cp_3_lines-3_v641ur5n7hmp-fill" data-item-order="-428404" transform="translate(446.0, 116.0)">
<g id="cp_3_lines-3_v641ur5n7hmp-fill-merged" stroke="none" fill="url(#gradient-4dd3ff-403310036)" fill-opacity="1.0">
<g>
<path d="M202 370C202 376.627 196.627 382 190 382 H22C15.373 382 10 376.627 10 370 V22C10 15.373 15.373 10 22 10 H190C196.627 10 202 15.373 202 22 V370"></path>
</g>
</g>
</g>
<g id="g-root-cp_3_lines-3_v641ur5n7hmp-stroke" data-item-order="-428404" transform="translate(446.0, 116.0)">
<g id="cp_3_lines-3_v641ur5n7hmp-stroke" fill="none" stroke-linecap="round" stroke-linejoin="round" stroke-miterlimit="4" stroke="#484848" stroke-width="2" stroke-opacity="1.0">
<g>
<path d="M 190 10C 196.6274 10 202 15.3726 202 22M 10 22L 10 370.000031M 202 370.000031L 202 22M 190 382L 22 382M 22 10L 190 10M 10 22C 10 15.3726 15.3726 10 22 10M 22 382C 15.3726 382 10 376.6274 10 370M 190 382C 196.6274 382 202 376.6274 202 370"></path>
</g>
</g>
</g>
<g id="g-root-cp_3_donut-unfilled-3_3dizn5n7i8a-fill" data-item-order="-428359" transform="translate(469.99871826171875, 296.0)"></g>
<g id="g-root-cp_3_donut-unfilled-3_3dizn5n7i8a-stroke" data-item-order="-428359" transform="translate(469.99871826171875, 296.0)">
<g id="cp_3_donut-unfilled-3_3dizn5n7i8a-stroke" fill="none" stroke-linecap="round" stroke-linejoin="round" stroke-miterlimit="4" stroke="#484848" stroke-width="2" stroke-opacity="1.0">
<g>
<path d="M 95.492666 11.2753C 133.257558 18.479286 158.700048 54.082487 153.283021 92.144808C 147.865995 130.207128 113.500818 157.298507 75.225575 153.680468C 36.950332 150.062428 8.270213 117.011574 10.081233 78.608389C 11.892253 40.205204 43.555404 10.000021 82.001267 10M 82.001266 22C 49.963058 21.999914 23.57702 47.170803 22.067723 79.173445C 20.558427 111.176087 44.458418 138.718547 76.354435 141.733702C 108.250452 144.748857 136.888183 122.172829 141.402502 90.454254C 145.916821 58.735679 124.71488 29.066261 93.244171 23.062801"></path>
</g>
</g>
</g>
<g id="g-root-cp_3_donut-filled-3_hunjhf5n7if4-fill" data-item-order="-428356" transform="translate(542.0, 296.0)">
<g id="cp_3_donut-filled-3_hunjhf5n7if4-fill-merged" stroke="none" fill="url(#gradient-595959-232476331)" fill-opacity="1.0">
<g>
<path d="M10 10C14.527 10 19.044 10.427 23.491 11.275L21.243 23.063C17.537 22.356 13.773 22 10 22 V10"></path>
</g>
</g>
</g>
<g id="g-root-cp_3_donut-filled-3_hunjhf5n7if4-stroke" data-item-order="-428356" transform="translate(542.0, 296.0)">
<g id="cp_3_donut-filled-3_hunjhf5n7if4-stroke" fill="none" stroke-linecap="round" stroke-linejoin="round" stroke-miterlimit="4" stroke="#484848" stroke-width="2" stroke-opacity="1.0">
<g>
<path d="M 10 10C 14.527227 9.999998 19.044363 10.426988 23.491401 11.2753L 21.2429 23.0628C 17.537019 22.355853 13.772716 22.000011 10.000004 22.000001Z"></path>
</g>
</g>
</g>
<g id="g-root-cp_4_lines-4_deu1cz5n7j7o-fill" data-item-order="-428340" transform="translate(662.0, 116.0)">
<g id="cp_4_lines-4_deu1cz5n7j7o-fill-merged" stroke="none" fill="url(#gradient-a28bff-185831087)" fill-opacity="1.0">
<g>
<path d="M202 370C202 376.627 196.627 382 190 382 H22C15.373 382 10 376.627 10 370 V22C10 15.373 15.373 10 22 10 H190C196.627 10 202 15.373 202 22 V370"></path>
</g>
</g>
</g>
<g id="g-root-cp_4_lines-4_deu1cz5n7j7o-stroke" data-item-order="-428340" transform="translate(662.0, 116.0)">
<g id="cp_4_lines-4_deu1cz5n7j7o-stroke" fill="none" stroke-linecap="round" stroke-linejoin="round" stroke-miterlimit="4" stroke="#484848" stroke-width="2" stroke-opacity="1.0">
<g>
<path d="M 190 10C 196.6274 10 202 15.3726 202 22M 10 22L 10 370.000031M 202 370.000031L 202 22M 190 382L 22 382M 22 10L 190 10M 10 22C 10 15.3726 15.3726 10 22 10M 22 382C 15.3726 382 10 376.6274 10 370M 190 382C 196.6274 382 202 376.6274 202 370"></path>
</g>
</g>
</g>
<g id="g-root-cp_4_donut-unfilled-4_1uoo2ub5n7jf1-fill" data-item-order="-428295" transform="translate(685.99365234375, 296.0)"></g>
<g id="g-root-cp_4_donut-unfilled-4_1uoo2ub5n7jf1-stroke" data-item-order="-428295" transform="translate(685.99365234375, 296.0)">
<g id="cp_4_donut-unfilled-4_1uoo2ub5n7jf1-stroke" fill="none" stroke-linecap="round" stroke-linejoin="round" stroke-miterlimit="4" stroke="#484848" stroke-width="2" stroke-opacity="1.0">
<g>
<path d="M 145.100448 47.3137C 160.73218 75.747676 155.413547 111.124403 132.112137 133.705066C 108.810727 156.285728 73.284399 160.490566 45.355439 143.973446C 17.42648 127.456326 3.996232 94.298686 12.558243 63.001178C 21.120254 31.70367 49.558821 10.000018 82.006348 10M 82.006348 22C 54.966747 21.999996 31.267929 40.086355 24.1329 66.167604C 16.997871 92.248854 28.189721 119.880228 51.463841 133.644513C 74.737961 147.408799 104.343236 143.904793 123.761094 125.087593C 143.178951 106.270393 147.611173 76.789794 134.584754 53.094802"></path>
</g>
</g>
</g>
<g id="g-root-cp_4_donut-filled-4_3dizn5n7jt8-fill" data-item-order="-428292" transform="translate(758.0, 296.0)">
<defs>
<linearGradient id="gradient-64edab-300750244" x2="0" y2="1">
<stop offset="0" stop-color="#fde9ef"></stop>
<stop offset="1" stop-color="#f3bccb"></stop>
</linearGradient>
<linearGradient id="gradient-595959-232476331" x2="0" y2="1">
<stop offset="0" stop-color="#696969"></stop>
<stop offset="1" stop-color="#484848"></stop>
</linearGradient>
<linearGradient id="gradient-bceb57-510249182" x2="0" y2="1">
<stop offset="0" stop-color="#f8f1e5"></stop>
<stop offset="1" stop-color="#e9d6b8"></stop>
</linearGradient>
<linearGradient id="gradient-4dd3ff-403310036" x2="0" y2="1">
<stop offset="0" stop-color="#fde9ef"></stop>
<stop offset="1" stop-color="#f3bccb"></stop>
</linearGradient>
<linearGradient id="gradient-a28bff-185831087" x2="0" y2="1">
<stop offset="0" stop-color="#f8f1e5"></stop>
<stop offset="1" stop-color="#e9d6b8"></stop>
</linearGradient>
</defs>
<g id="cp_4_donut-filled-4_3dizn5n7jt8-fill-merged" stroke="none" fill="url(#gradient-595959-232476331)" fill-opacity="1.0">
<g>
<path d="M10 10C36.263 10 60.442 24.3 73.094 47.314L62.578 53.095C52.035 33.916 31.886 22 10 22 V10"></path>
</g>
</g>
</g>
<g id="g-root-cp_4_donut-filled-4_3dizn5n7jt8-stroke" data-item-order="-428292" transform="translate(758.0, 296.0)">
<g id="cp_4_donut-filled-4_3dizn5n7jt8-stroke" fill="none" stroke-linecap="round" stroke-linejoin="round" stroke-miterlimit="4" stroke="#484848" stroke-width="2" stroke-opacity="1.0">
<g>
<path d="M 10 10C 36.262628 9.999986 60.441971 24.299591 73.094101 47.3137L 62.5784 53.0948C 52.034981 33.916363 31.885533 22.000004 10.000004 22.000001Z"></path>
</g>
</g>
</g>
<g id="g-root-tx_activewe_mb3ioz5n7jt2-fill" data-item-order="0" transform="translate(47.3671875, 212.0)">
<g id="tx_activewe_mb3ioz5n7jt2-fill-merged" stroke="none" fill="#484848" fill-opacity="1.0">
<g>
<text transform="translate(70.6328125, 25.0)" style="font-size:15px; font-family:'Source Serif 4', serif; font-weight:bold; white-space:pre;">
<tspan x="-58.63" y="3" dominant-baseline="ideographic">Activewear brand </tspan>
<tspan x="-58.45" y="21" dominant-baseline="ideographic">saw a substantial </tspan>
<tspan x="-28.95" y="39" dominant-baseline="ideographic">increase.</tspan>
</text>
</g>
</g>
</g>
<g id="g-root-tx_activewe_mb3ioz5n7jt2-stroke" data-item-order="0" transform="translate(47.3671875, 212.0)"></g>
<g id="g-root-ic_asce_hva0kj5n7k78-fill" data-item-order="0" transform="translate(74.0, 332.0)"></g>
<g id="g-root-ic_asce_hva0kj5n7k78-stroke" data-item-order="0" transform="translate(74.0, 332.0)">
<g id="ic_asce_hva0kj5n7k78-stroke" fill="none" stroke-linecap="round" stroke-linejoin="round" stroke-miterlimit="4" stroke="#484848" stroke-width="2" stroke-opacity="1.0">
<g>
<path d="M 13.75 64.75L 35.758003 40C 36.875935 38.765854 38.765076 38.624699 40.054001 39.679001L 53.445999 50.839001C 54.734306 51.893448 56.624115 51.748077 57.736 50.508999L 78.25 27.25M 57.436001 27.25L 78.25 27.25L 78.25 45.187"></path>
</g>
</g>
</g>
<g id="g-root-tx_136_qvwtib5n7jlt-fill" data-item-order="0" transform="translate(70.4375, 446.0)">
<g id="tx_136_qvwtib5n7jlt-fill-merged" stroke="none" fill="#484848" fill-opacity="1.0">
<g>
<text transform="translate(47.5625, 10.0)" style="font-size:25px; font-family:'Playfair Display', serif; font-weight:bold; white-space:pre;">
<tspan x="-35.56" y="30" dominant-baseline="ideographic">+136%</tspan>
</text>
</g>
</g>
</g>
<g id="g-root-tx_136_qvwtib5n7jlt-stroke" data-item-order="0" transform="translate(70.4375, 446.0)"></g>
<g id="g-root-tx_nespress_8zsrn5n7k7a-fill" data-item-order="0" transform="translate(272.1640625, 128.0)">
<g id="tx_nespress_8zsrn5n7k7a-fill-merged" stroke="none" fill="#484848" fill-opacity="1.0">
<g>
<text transform="translate(61.8359375, 34.0)" style="font-size:20px; font-family:'Playfair Display', serif; font-weight:bold; white-space:pre;">
<tspan x="-48.63" y="0" dominant-baseline="ideographic">Nespresso </tspan>
<tspan x="-42.81" y="24" dominant-baseline="ideographic">Purchase </tspan>
<tspan x="-49.84" y="48" dominant-baseline="ideographic">Completion</tspan>
</text>
</g>
</g>
</g>
<g id="g-root-tx_nespress_8zsrn5n7k7a-stroke" data-item-order="0" transform="translate(272.1640625, 128.0)"></g>
<g id="g-root-tx_coffeebr_1lz9tgj5n7i13-fill" data-item-order="0" transform="translate(274.921875, 212.0)">
<g id="tx_coffeebr_1lz9tgj5n7i13-fill-merged" stroke="none" fill="#484848" fill-opacity="1.0">
<g>
<text transform="translate(59.078125, 34.0)" style="font-size:15px; font-family:'Source Serif 4', serif; font-weight:bold; white-space:pre;">
<tspan x="-43.58" y="-6" dominant-baseline="ideographic">Coffee brand </tspan>
<tspan x="-47.08" y="12" dominant-baseline="ideographic">experienced a </tspan>
<tspan x="-25.13" y="30" dominant-baseline="ideographic">notable </tspan>
<tspan x="-44.75" y="48" dominant-baseline="ideographic">improvement.</tspan>
</text>
</g>
</g>
</g>
<g id="g-root-tx_coffeebr_1lz9tgj5n7i13-stroke" data-item-order="0" transform="translate(274.921875, 212.0)"></g>
<g id="g-root-ic_hot_1d3mt7n5n7if7-fill" data-item-order="0" transform="translate(290.0, 332.0)"></g>
<g id="g-root-ic_hot_1d3mt7n5n7if7-stroke" data-item-order="0" transform="translate(290.0, 332.0)">
<g id="ic_hot_1d3mt7n5n7if7-stroke" fill="none" stroke-linecap="round" stroke-linejoin="round" stroke-miterlimit="4" stroke="#484848" stroke-width="2" stroke-opacity="1.0">
<g>
<path d="M 34 28.471001C 31.655708 26.127659 31.655708 22.327343 34 19.984001C 36.342293 17.641001 36.342293 13.842999 34 11.5M 46 28.471001C 43.655708 26.127659 43.655708 22.327343 46 19.984001C 48.342293 17.641001 48.342293 13.842999 46 11.5M 58 28.471001C 55.655708 26.127659 55.655708 22.327343 58 19.984001C 60.342293 17.641001 60.342293 13.842999 58 11.5M 26.5 44.625999C 26.500002 49.596565 35.23045 53.626003 46 53.626003C 56.769554 53.626003 65.5 49.596565 65.5 44.626003C 65.5 39.655437 56.769554 35.626003 46 35.626003C 35.23045 35.626003 26.500002 39.655437 26.500002 44.626003ZM 65.5 44.625999C 65.575142 51.344818 64.389656 58.01815 62.004997 64.299995C 61.662811 65.17765 61.118 65.961983 60.415001 66.588997C 56.39463 69.986549 51.261456 71.78022 46 71.625999C 40.743668 71.776505 35.616482 69.983047 31.6 66.589005C 30.896053 65.962814 30.351068 65.178246 30.009998 64.299995C 27.619265 58.019398 26.42865 51.345856 26.5 44.625999M 64.656998 54.657997C 69.799004 57.400002 73 61.237 73 65.5C 73 73.782997 60.913002 80.5 46 80.5C 31.087 80.5 19 73.782997 19 65.5C 19 61.237 22.201 57.400002 27.34 54.657997M 32.577999 51.153999C 31.719999 47.548 38.058998 44.5 46 44.5C 53.941002 44.5 60.279999 47.548 59.422005 51.153999"></path>
</g>
</g>
</g>
<g id="g-root-tx_36_v3m5ib5nadj7-fill" data-item-order="0" transform="translate(293.609375, 446.0)">
<g id="tx_36_v3m5ib5nadj7-fill-merged" stroke="none" fill="#484848" fill-opacity="1.0">
<g>
<text transform="translate(40.390625, 10.0)" style="font-size:25px; font-family:'Playfair Display', serif; font-weight:bold; white-space:pre;">
<tspan x="-28.39" y="30" dominant-baseline="ideographic">+36%</tspan>
</text>
</g>
</g>
</g>
<g id="g-root-tx_36_v3m5ib5nadj7-stroke" data-item-order="0" transform="translate(293.609375, 446.0)"></g>
<g id="g-root-tx_clarinsc_1umsnkz5naarn-fill" data-item-order="0" transform="translate(475.875, 128.0)">
<g id="tx_clarinsc_1umsnkz5naarn-fill-merged" stroke="none" fill="#484848" fill-opacity="1.0">
<g>
<text transform="translate(74.125, 34.0)" style="font-size:20px; font-family:'Playfair Display', serif; font-weight:bold; white-space:pre;">
<tspan x="-62.13" y="0" dominant-baseline="ideographic">Clarins Clicks </tspan>
<tspan x="-53.85" y="24" dominant-baseline="ideographic">vs Standard </tspan>
<tspan x="-19.05" y="48" dominant-baseline="ideographic">SMS</tspan>
</text>
</g>
</g>
</g>
<g id="g-root-tx_clarinsc_1umsnkz5naarn-stroke" data-item-order="0" transform="translate(475.875, 128.0)"></g>
<g id="g-root-tx_popflexc_deu1cz5n7klj-fill" data-item-order="0" transform="translate(51.234375, 128.0)">
<g id="tx_popflexc_deu1cz5n7klj-fill-merged" stroke="none" fill="#484848" fill-opacity="1.0">
<g>
<text transform="translate(66.765625, 34.0)" style="font-size:20px; font-family:'Playfair Display', serif; font-weight:bold; white-space:pre;">
<tspan x="-43.17" y="0" dominant-baseline="ideographic">POPFLEX </tspan>
<tspan x="-51.39" y="24" dominant-baseline="ideographic">Conversion </tspan>
<tspan x="-54.77" y="48" dominant-baseline="ideographic">Rate vs SMS</tspan>
</text>
</g>
</g>
</g>
<g id="g-root-tx_popflexc_deu1cz5n7klj-stroke" data-item-order="0" transform="translate(51.234375, 128.0)"></g>
<g id="g-root-ic_2_hss4835nabr6-fill" data-item-order="0" transform="translate(506.0, 332.0)"></g>
<g id="g-root-ic_2_hss4835nabr6-stroke" data-item-order="0" transform="translate(506.0, 332.0)">
<g id="ic_2_hss4835nabr6-stroke" fill="none" stroke-linecap="round" stroke-linejoin="round" stroke-miterlimit="4" stroke="#484848" stroke-width="2" stroke-opacity="1.0">
<g>
<path d="M 46.749699 58.449997C 59.5075 58.449997 69.849701 48.1078 69.849701 35.349998C 69.849701 22.592201 59.5075 12.25 46.749699 12.25C 33.991989 12.25 23.64979 22.592201 23.64979 35.349998C 23.64979 48.1078 33.991989 58.449997 46.749699 58.449997ZM 10 10M 79.749702 68.350601L 62.949699 51.850601M 18.25 21.25C 14.95 21.25 12.25 23.950001 12.25 27.25L 12.25 73.75C 12.25 77.050003 14.95 79.75 18.25 79.75L 48.25 79.75C 51.550003 79.75 54.25 77.050003 54.25 73.75L 54.25 66.25M 40.75 21.25L 48.25 21.25C 51.550003 21.25 54.25 23.950001 54.25 27.25L 54.25 46.75M 32.649792 39.25L 43.1497 39.25M 34.149788 30.25L 43.1497 30.25M 40.1497 48.25L 43.1497 48.25"></path>
</g>
</g>
</g>
<g id="g-root-tx_3x_1lw5g0z5nadj7-fill" data-item-order="0" transform="translate(526.46875, 446.0)">
<g id="tx_3x_1lw5g0z5nadj7-fill-merged" stroke="none" fill="#484848" fill-opacity="1.0">
<g>
<text transform="translate(23.53125, 10.0)" style="font-size:25px; font-family:'Playfair Display', serif; font-weight:bold; white-space:pre;">
<tspan x="-11.53" y="30" dominant-baseline="ideographic">3x</tspan>
</text>
</g>
</g>
</g>
<g id="g-root-tx_3x_1lw5g0z5nadj7-stroke" data-item-order="0" transform="translate(526.46875, 446.0)"></g>
<g id="g-root-tx_boulange_1lwrx435naarw-fill" data-item-order="0" transform="translate(688.609375, 128.0)">
<g id="tx_boulange_1lwrx435naarw-fill-merged" stroke="none" fill="#484848" fill-opacity="1.0">
<g>
<text transform="translate(77.390625, 34.0)" style="font-size:20px; font-family:'Playfair Display', serif; font-weight:bold; white-space:pre;">
<tspan x="-46.5" y="0" dominant-baseline="ideographic">Boulanger </tspan>
<tspan x="-55.53" y="24" dominant-baseline="ideographic">Black Friday </tspan>
<tspan x="-65.39" y="48" dominant-baseline="ideographic">Response Rate</tspan>
</text>
</g>
</g>
</g>
<g id="g-root-tx_boulange_1lwrx435naarw-stroke" data-item-order="0" transform="translate(688.609375, 128.0)"></g>
<g id="g-root-tx_electron_qu1e8z5nab5z-fill" data-item-order="0" transform="translate(694.1640625, 212.0)">
<g id="tx_electron_qu1e8z5nab5z-fill-merged" stroke="none" fill="#484848" fill-opacity="1.0">
<g>
<text transform="translate(71.8359375, 25.0)" style="font-size:15px; font-family:'Source Serif 4', serif; font-weight:bold; white-space:pre;">
<tspan x="-56.52" y="3" dominant-baseline="ideographic">Electronics retail </tspan>
<tspan x="-53.01" y="21" dominant-baseline="ideographic">brand showed a </tspan>
<tspan x="-59.84" y="39" dominant-baseline="ideographic">positive response.</tspan>
</text>
</g>
</g>
</g>
<g id="g-root-tx_electron_qu1e8z5nab5z-stroke" data-item-order="0" transform="translate(694.1640625, 212.0)"></g>
<g id="g-root-ic_full_me7w4j5nabk3-fill" data-item-order="0" transform="translate(722.0, 332.0)"></g>
<g id="g-root-ic_full_me7w4j5nabk3-stroke" data-item-order="0" transform="translate(722.0, 332.0)">
<g id="ic_full_me7w4j5nabk3-stroke" fill="none" stroke-linecap="round" stroke-linejoin="round" stroke-miterlimit="4" stroke="#484848" stroke-width="2" stroke-opacity="1.0">
<g>
<path d="M 21.763 72.277C 21.763 74.762283 23.777719 76.777 26.263 76.777C 28.748281 76.777 30.763 74.762283 30.763 72.277C 30.763 69.791725 28.748281 67.777 26.263 67.777C 23.777719 67.777 21.763 69.791725 21.763 72.277M 54.763 72.277C 54.763 74.762283 56.777718 76.777 59.263004 76.777C 61.748283 76.777 63.763004 74.762283 63.763004 72.277C 63.763004 69.791725 61.748283 67.777 59.263004 67.777C 56.777718 67.777 54.763 69.791725 54.763 72.277M 80.263 16.777L 72.462997 16.777C 71.766129 16.776764 71.160881 17.256489 71.001999 17.934999L 59.263 67.777L 26.263 67.777M 60.763 61.777L 22.843 61.777C 22.197641 61.776512 21.624933 61.363293 21.421 60.750999L 13.42 36.750999C 13.267551 36.293289 13.344553 35.790192 13.626925 35.399033C 13.909296 35.007874 14.36257 34.776402 14.845 34.777L 66.948997 34.777M 42.763 34.777L 53.713001 23.827C 54.296265 23.255285 55.229736 23.255285 55.813 23.827L 67 34.777M 27.763 34.777L 19.389999 16.108C 19.224869 15.739644 18.91824 15.453393 18.539413 15.313945C 18.160589 15.174497 17.741547 15.193623 17.377001 15.367001L 12.577 17.644001C 11.839243 17.995918 11.519068 18.873734 11.857 19.618L 18.757 34.777M 30.763 34.777L 30.763 27.277C 30.763 26.448574 31.434572 25.777 32.263 25.777L 44.263 25.777"></path>
</g>
</g>
</g>
<g id="g-root-tx_17_dcc50j5nd62v-fill" data-item-order="0" transform="translate(732.4296875, 446.0)">
<g id="tx_17_dcc50j5nd62v-fill-merged" stroke="none" fill="#484848" fill-opacity="1.0">
<g>
<text transform="translate(33.5703125, 10.0)" style="font-size:25px; font-family:'Playfair Display', serif; font-weight:bold; white-space:pre;">
<tspan x="-21.57" y="30" dominant-baseline="ideographic">17%</tspan>
</text>
</g>
</g>
</g>
<g id="g-root-tx_17_dcc50j5nd62v-stroke" data-item-order="0" transform="translate(732.4296875, 446.0)"></g>
<g id="g-root-tx_rcsrichm_qnsndv5nd69y-fill" data-item-order="0" transform="translate(14.0, 512.0)">
<g id="tx_rcsrichm_qnsndv5nd69y-fill-merged" stroke="none" fill="#484848" fill-opacity="1.0">
<g>
<text transform="translate(10.0, 22.0)" style="font-size:20px; font-family:'Source Serif 4', serif; white-space:pre;">
<tspan x="2" y="12" dominant-baseline="ideographic">RCS rich messaging significantly outperforms plain SMS across various brands and </tspan>
<tspan x="2" y="36" dominant-baseline="ideographic">metrics.</tspan>
</text>
</g>
</g>
</g>
<g id="g-root-tx_rcsrichm_qnsndv5nd69y-stroke" data-item-order="0" transform="translate(14.0, 512.0)"></g>
<g id="g-root-tx_rcsrichm_zlxjz75n7k02-fill" data-item-order="0" transform="translate(253.515625, 38.0)">
<g id="tx_rcsrichm_zlxjz75n7k02-fill-merged" stroke="none" fill="#484848" fill-opacity="1.0">
<g>
<text transform="translate(188.484375, 10.0)" style="font-size:25px; font-family:'Playfair Display', serif; font-weight:bold; white-space:pre;">
<tspan x="-176.48" y="30" dominant-baseline="ideographic">RCS Rich Messaging Early Wins</tspan>
</text>
</g>
</g>
</g>
<g id="g-root-tx_rcsrichm_zlxjz75n7k02-stroke" data-item-order="0" transform="translate(253.515625, 38.0)"></g>
<g id="g-root-tx_beautybr_1i3qb5nabd8-fill" data-item-order="0" transform="translate(473.4921875, 212.0)">
<g id="tx_beautybr_1i3qb5nabd8-fill-merged" stroke="none" fill="#484848" fill-opacity="1.0">
<g>
<text transform="translate(76.5078125, 34.0)" style="font-size:15px; font-family:'Source Serif 4', serif; font-weight:bold; white-space:pre;">
<tspan x="-44.39" y="-6" dominant-baseline="ideographic">Beauty brand </tspan>
<tspan x="-30.02" y="12" dominant-baseline="ideographic">achieved </tspan>
<tspan x="-64.51" y="30" dominant-baseline="ideographic">significantly higher </tspan>
<tspan x="-42.36" y="48" dominant-baseline="ideographic">engagement.</tspan>
</text>
</g>
</g>
</g>
<g id="g-root-tx_beautybr_1i3qb5nabd8-stroke" data-item-order="0" transform="translate(473.4921875, 212.0)"></g>
</g>
</g>
</svg>