<?xml version="1.0" encoding="utf-8" standalone="yes"?>
<!DOCTYPE svg PUBLIC "-//W3C//DTD SVG 1.1//EN" "http://www.w3.org/Graphics/SVG/1.1/DTD/svg11.dtd">
<svg version="1.1" xmlns="http://www.w3.org/2000/svg" xmlns:xlink="http://www.w3.org/1999/xlink" width="887" height="733" viewBox="0 0 887 733" style="fill:none; stroke:none; fill-rule:evenodd; clip-rule:evenodd; stroke-linecap:round; stroke-linejoin:round; stroke-miterlimit:1.5;">
<style class="text-font-style fontImports" data-font-family="Source Serif 4">
@import url(https://fonts.googleapis.com/css2?family=Playfair+Display:wght@400;700&amp;family=Source+Serif+4:wght@400;600&amp;display=block);
</style>
<style class="text-font-style">



</style>
<rect id="" x="0" y="0" width="887" height="733" style="fill:#ffffff;"></rect>
<g id="items" style="isolation:isolate;">
<g id="blend" style="mix-blend-mode:normal;">
<g id="g-root-tf_hvwz8oy7kutf-fill" data-item-order="-975257">
<g id="tf_hvwz8oy7kutf-fill-merged" stroke="none" fill="#ffffff" fill-opacity="1.0">
<g>
<path d="M0 0 H887 V733 H0 V0"></path>
</g>
</g>
</g>
<g id="g-root-tf_hvwz8oy7kutf-stroke" data-item-order="-975257"></g>
<g id="g-root-cp_0_g-0_1lwsep4y7f95b-fill" data-item-order="-578150" transform="translate(250.69424438476562, 420.04400634765625)">
<g id="cp_0_g-0_1lwsep4y7f95b-fill-merged" stroke="none" fill="#bcbcbc" fill-opacity="1.0">
<g>
<path d="M306.608 10L302.148 17.456L292.589 33.437 H203.868L203.061 17.456L202.991 16.065C204.421 15.49 205.8 14.814 207.119 14.048C209.103 12.895 210.953 11.536 212.64 10 H306.608 M169.337 10C170.856 11.384 172.507 12.625 174.271 13.7C175.364 14.366 176.501 14.969 177.675 15.504L177.587 17.456L176.864 33.437 H80.501L68.144 17.456L63.922 11.996L62.566 10 H169.337 M363.074 33.437 H369C371.209 33.437 373 31.646 373 29.437 V16.319L364.325 30.91C363.987 31.479 363.561 31.963 363.074 32.355C361.368 33.729 358.92 33.976 356.927 32.791L343.223 24.766L324.121 13.581L337.46 21.511L330.347 33.437 H343.223 V116.956 H39.777 V33.437 H48.45L43.985 25.532L39.777 19.335L34.032 10.873L23.478 18.039C22.395 18.774 21.094 18.942 19.926 18.611C18.998 18.348 18.154 17.769 17.57 16.909L16.774 15.737L10 20.335 V20.9L11.33 22.859C13.014 25.34 12.466 28.675 10.144 30.499C10.609 32.192 12.159 33.437 14 33.437 H19.926 V111.557 H14C11.791 111.557 10 113.348 10 115.557 V260.956C10 263.165 11.791 264.956 14 264.956 H35.777C37.986 264.956 39.777 263.165 39.777 260.956 V259.274 H343.223 V260.956C343.223 263.165 345.013 264.956 347.223 264.956 H369C371.209 264.956 373 263.165 373 260.956 V115.557C373 113.348 371.209 111.557 369 111.557 H363.074 V33.437"></path>
</g>
</g>
</g>
<g id="g-root-cp_0_g-0_1lwsep4y7f95b-stroke" data-item-order="-578150" transform="translate(250.69424438476562, 420.04400634765625)">
<g id="cp_0_g-0_1lwsep4y7f95b-stroke" fill="none" stroke-linecap="round" stroke-linejoin="round" stroke-miterlimit="4" stroke="#484848" stroke-width="2" stroke-opacity="1.0">
<g>
<path d="M 306.6084 10L 302.1483 17.4561L 292.5889 33.4365L 203.8682 33.4365L 203.0614 17.4561L 202.9912 16.0654C 204.4205 15.49 205.7996 14.8142 207.1191 14.0479C 209.1033 12.8954 210.953 11.536 212.6396 10L 306.6084 10ZM 169.3369 10C 170.8558 11.3835 172.5072 12.6249 174.2715 13.7002C 175.3644 14.3663 176.5009 14.9695 177.6748 15.5039L 177.5866 17.4561L 176.8643 33.4365L 80.501 33.4365L 68.1439 17.4561L 63.9219 11.9961L 62.5664 10L 169.3369 10ZM 343.2227 33.4365L 343.2227 116.9561L 343.2227 164.1101L 343.2227 212.4025L 343.2227 259.2744L 343.2227 260.9561C 343.2227 263.1652 345.0135 264.9561 347.2227 264.9561L 369 264.9561C 371.2091 264.9561 373 263.1652 373 260.9561L 373 115.5566C 373 113.3475 371.2091 111.5566 369 111.5566L 363.0742 111.5566L 363.0742 33.4365L 363.0742 32.3548C 361.3683 33.7295 358.9204 33.9761 356.9268 32.791L 343.2227 24.7663L 343.2227 33.4365ZM 39.7773 164.1101L 39.7773 212.4025L 343.2227 212.4025L 343.2227 164.1101L 313.4453 164.1101L 302.8105 164.1101L 39.7773 164.1101ZM 343.2227 116.9561L 140.2725 116.9561L 128.4004 116.9561L 117.7656 116.9561L 39.7773 116.9561L 39.7773 164.1101L 302.8105 164.1101L 313.4453 164.1101L 343.2227 164.1101L 343.2227 116.9561ZM 39.7773 259.2744L 343.2227 259.2744L 343.2227 212.4025L 39.7773 212.4025L 39.7773 259.2744ZM 34.0322 10.873L 23.4775 18.0391C 22.3946 18.7743 21.0937 18.9425 19.9258 18.6111L 19.9258 33.4365L 19.9258 111.5566L 14 111.5566C 11.7909 111.5566 10 113.3475 10 115.5566L 10 260.9561C 10 263.1652 11.7909 264.9561 14 264.9561L 35.7773 264.9561C 37.9865 264.9561 39.7773 263.1652 39.7773 260.9561L 39.7773 259.2744L 39.7773 212.4025L 39.7773 164.1101L 39.7773 116.9561L 39.7773 33.4365L 39.7773 19.3346L 34.0322 10.873ZM 14 33.4365L 19.9258 33.4365L 19.9258 18.6111C 18.9981 18.3478 18.1543 17.7693 17.5703 16.9092L 16.7744 15.7373L 10 20.335L 10 20.9004L 11.3301 22.8594C 13.0139 25.3396 12.4662 28.6754 10.1436 30.499C 10.609 32.1923 12.1588 33.4365 14 33.4365ZM 48.4502 33.4365L 43.9854 25.5322L 39.7773 19.3346L 39.7773 33.4365L 48.4502 33.4365ZM 330.3467 33.4365L 343.2227 33.4365L 343.2227 24.7663L 324.1211 13.5811L 337.46 21.5107L 330.3467 33.4365ZM 373 29.4365L 373 16.3193L 364.3252 30.9102C 363.9871 31.4788 363.5608 31.9627 363.0742 32.3548L 363.0742 33.4365L 369 33.4365C 371.2091 33.4365 373 31.6456 373 29.4365ZM 39.7773 116.9561C 39.7773 116.9561 87.3093 116.9561 117.7656 116.9561M 343.2227 116.9561L 128.4004 116.9561M 68.1439 17.4561L 177.5866 17.4561M 203.0614 17.4561L 256.5869 17.4561M 282.0869 17.4561L 302.1483 17.4561M 25.5977 111.5566L 30.5605 111.5566M 356.6934 111.5566L 351.0215 111.5566M 53.957 147.0657L 117.7656 147.0657M 86.5703 152.037L 138.3262 152.037M 205.6797 126.4704L 325.498 126.4704M 243.2559 247.2015L 325.498 247.2015M 286.5039 252.883L 332.5879 252.883M 229.7852 252.883L 191.5 252.883M 79.4805 247.2015L 53.957 247.2015M 117.7656 128.601C 117.7656 128.601 117.7656 121.3936 117.7656 116.9561M 117.7656 116.9561C 121.9188 116.9561 128.4004 116.9561 128.4004 116.9561M 128.4004 139.9639L 128.4004 116.9561M 313.4453 164.1101L 313.4453 193.9378M 302.8105 164.1101L 302.8105 181.8647"></path>
</g>
</g>
</g>
<g id="g-root-cp_3_g-3_dildgoy7f9ji-fill" data-item-order="-578146" transform="translate(483.3232421875, 354.9990234375)">
<g id="cp_3_g-3_dildgoy7f9ji-fill-merged" stroke="none" fill="url(#gradient-fe8884-345532732)" fill-opacity="1.0">
<g>
<path d="M143.829 69.992C144.851 71.695 144.855 73.821 143.84 75.528L134.799 90.735L131.696 95.955C130.173 98.517 126.86 99.359 124.298 97.836L91.492 78.625L88.013 76.557L81.633 72.764L51.476 54.835C48.914 53.311 48.071 49.999 49.595 47.437L65.455 20.759L71.255 24.207C72.446 21.148 69.264 18.314 67.524 17.28L70.282 12.64C71.806 10.078 75.118 9.235 77.68 10.759L128.706 41.095C129.473 41.551 130.116 42.191 130.576 42.957L143.829 69.992 M81.633 72.764L76.994 70.006L10 182.001 H47.899L104.831 86.556L91.492 78.625L88.013 76.557L81.633 72.764 M107.604 56.807L110.504 58.531L107.604 56.807"></path>
</g>
</g>
</g>
<g id="g-root-cp_3_g-3_dildgoy7f9ji-stroke" data-item-order="-578146" transform="translate(483.3232421875, 354.9990234375)">
<g id="cp_3_g-3_dildgoy7f9ji-stroke" fill="none" stroke-linecap="round" stroke-linejoin="round" stroke-miterlimit="4" stroke="#484848" stroke-width="2" stroke-opacity="1.0">
<g>
<path d="M 143.8289 69.992369C 144.8507 71.694969 144.855 73.821169 143.8402 75.527969L 134.7992 90.735069L 131.6961 95.954569C 130.1727 98.516969 126.8605 99.359169 124.2982 97.835769L 91.4923 78.625369L 88.0126 76.556669L 81.6332 72.763869L 51.4761 54.834669C 48.9137 53.311269 48.0715 49.999069 49.5949 47.436769L 65.4553 20.759269L 71.2548 24.207169C 72.4458 21.147669 69.2639 18.313969 67.5241 17.279569L 70.2824 12.640069C 71.8058 10.077669 75.118 9.235469 77.6803 10.758869L 128.7057 41.094769C 129.4735 41.551269 130.116 42.191169 130.5756 42.957069L 143.8289 69.992369ZM 81.6332 72.763869L 76.9937 70.005569L 10 182.000669L 47.8987 182.000669L 104.831 86.555669L 91.4923 78.625369L 88.0126 76.556669L 81.6332 72.763869ZM 71.2548 24.207169C 68.935 22.828069 66.4219 21.333969 65.4553 20.759269M 81.6332 72.763869L 49.2227 127.278769M 40.6028 141.777369L 33.0174 154.536169M 88.0126 76.556669L 67.6698 110.773369M 91.4923 78.625369L 82.5277 93.703969M 63.0634 144.926669L 46.1686 173.343969M 68.5282 36.714969L 91.8818 31.760969M 64.3907 43.674369L 80.3464 40.601469M 110.6925 76.696569L 115.3321 79.454869M 134.7992 90.735069L 120.5516 82.558069M 107.6038 56.806769L 110.5035 58.530769"></path>
</g>
</g>
</g>
<g id="g-root-cp_2_g-2_92rvc8y7f9qm-fill" data-item-order="-578142" transform="translate(399.5182189941406, 367.6710205078125)">
<g id="cp_2_g-2_92rvc8y7f9qm-fill-merged" stroke="none" fill="url(#gradient-fcaa5f-284141256)" fill-opacity="1.0">
<g>
<path d="M41.824 70.751C37.197 70.702 32.808 69.678 28.851 67.877C27.677 67.343 26.541 66.74 25.448 66.074C19.349 62.356 14.59 56.668 12.047 49.904C10.685 46.282 9.958 42.35 10.002 38.248C10.132 25.924 17.177 15.293 27.411 10L26.987 50.062L47.516 50.28C52.807 50.336 57.142 46.092 57.198 40.801L57.521 10.319C67.64 15.827 74.458 26.605 74.328 38.929C74.203 50.692 67.779 60.913 58.295 66.422C56.976 67.188 55.597 67.863 54.168 68.439C50.357 69.973 46.187 70.798 41.824 70.751 M47.215 91.339C47.173 88.294 44.709 85.839 41.664 85.806C38.62 85.774 36.105 88.177 35.999 91.22L32.564 169.329 H50.263L47.215 91.339 M41.824 70.751C37.197 70.702 32.808 69.678 28.851 67.877L24.263 169.329 H32.564L35.999 91.22C36.105 88.177 38.62 85.774 41.664 85.806C44.709 85.839 47.173 88.294 47.215 91.339L50.263 169.329 H59.263L54.168 68.439C50.357 69.973 46.187 70.798 41.824 70.751 M16.437 49.951L16.524 41.739L16.437 49.951"></path>
</g>
</g>
</g>
<g id="g-root-cp_2_g-2_92rvc8y7f9qm-stroke" data-item-order="-578142" transform="translate(399.5182189941406, 367.6710205078125)">
<g id="cp_2_g-2_92rvc8y7f9qm-stroke" fill="none" stroke-linecap="round" stroke-linejoin="round" stroke-miterlimit="4" stroke="#484848" stroke-width="2" stroke-opacity="1.0">
<g>
<path d="M 41.823938 70.7513C 37.196738 70.7023 32.808038 69.6785 28.850938 67.8772C 27.677038 67.3427 26.541038 66.7399 25.448138 66.0737C 19.349238 62.3565 14.590238 56.6684 12.047038 49.9041C 10.684938 46.2815 9.958438 42.3503 10.001838 38.2478C 10.132438 25.924 17.177038 15.2926 27.410938 10L 26.986538 50.0624L 47.515938 50.2798C 52.807038 50.3359 57.141838 46.092 57.197838 40.8009L 57.520838 10.319C 67.640338 15.8272 74.458038 26.6055 74.327538 38.9292C 74.202838 50.6922 67.779138 60.9134 58.295238 66.4217C 56.975638 67.1881 55.596838 67.8633 54.167538 68.4387C 50.356938 69.9727 46.187338 70.7975 41.823938 70.7513ZM 47.214538 91.3385C 47.172538 88.2938 44.709338 85.8385 41.664438 85.8062C 38.619638 85.774 36.104938 88.1766 35.998538 91.2197L 32.563638 169.3294L 50.263338 169.3294L 47.214538 91.3385ZM 41.823938 70.7513C 37.196738 70.7023 32.808038 69.6785 28.850938 67.8772L 24.263338 169.3294L 32.563638 169.3294L 35.998538 91.2197C 36.104938 88.1766 38.619638 85.774 41.664438 85.8062C 44.709338 85.8385 47.172538 88.2938 47.214538 91.3385L 50.263338 169.3294L 59.263338 169.3294L 54.167538 68.4387C 50.356938 69.9727 46.187338 70.7975 41.823938 70.7513ZM 26.986538 50.0624L 20.827638 49.9971M 12.047038 49.9041L 16.437338 49.9506M 26.928538 55.5369L 46.773638 55.7471M 40.549538 61.8407L 52.182938 61.964M 62.788338 29.9099L 62.650638 42.9119M 20.827638 49.9971L 21.030638 30.8363M 20.827638 49.9971L 16.437338 49.9506M 16.437338 49.9506L 16.524338 41.7388"></path>
</g>
</g>
</g>
<g id="g-root-cp_1_g-1_1lwsep4y7f9xh-fill" data-item-order="-578138" transform="translate(225.78125, 367.9999694824219)">
<defs>
<linearGradient id="gradient-fe8884-345532732" x2="0" y2="1">
<stop offset="0" stop-color="#ffa6a3"></stop>
<stop offset="1" stop-color="#fd6a65"></stop>
</linearGradient>
<linearGradient id="gradient-fcaa5f-284141256" x2="0" y2="1">
<stop offset="0" stop-color="#ffbf84"></stop>
<stop offset="1" stop-color="#f99539"></stop>
</linearGradient>
<linearGradient id="gradient-ffeb37-9997561" x2="0" y2="1">
<stop offset="0" stop-color="#ffef63"></stop>
<stop offset="1" stop-color="#ffe60a"></stop>
</linearGradient>
</defs>
<g id="cp_1_g-1_1lwsep4y7f9xh-fill-merged" stroke="none" fill="url(#gradient-ffeb37-9997561)" fill-opacity="1.0">
<g>
<path d="M 88.5544 30.820831L 77.4071 14.402231L 62.7476 24.355131L 41.638 38.687331L 31.6695 45.455331C 29.7264 46.774631 29.2207 49.419231 30.5399 51.362331L 42.4835 68.953731C 43.8027 70.896831 46.4474 71.402531 48.3905 70.083231L 78.8822 49.381131L 88.5544 30.820831ZM 41.6873 67.780931L 31.3362 52.535131L 24.2997 57.312531L 34.6507 72.558331L 41.6873 67.780931ZM 118.3661 20.416031C 121.0183 20.316131 122.37 17.148931 120.1363 15.715431C 115.5905 12.798031 110.7396 11.217031 105.9981 10.496231C 91.1671 8.241431 77.4071 14.402231 77.4071 14.402231L 88.5544 30.820831C 88.5544 30.820831 92.1998 27.705731 98.7132 24.878031C 103.6996 22.713331 110.3669 20.717131 118.3661 20.416031ZM 34.7371 82.779831C 37.3279 81.020831 38.0022 77.494631 36.2432 74.903831L 22.7072 54.967031C 20.9482 52.376231 17.422 51.701931 14.8312 53.460931L 12.4857 55.053331C 9.8949 56.812331 9.2206 60.338531 10.9796 62.929331L 24.5156 82.866231C 26.2746 85.456931 29.8008 86.131331 32.3916 84.372331L 34.7371 82.779831ZM 62.7476 24.355131L 41.638 38.687331L 40.4436 36.928231C 39.1244 34.985131 39.6301 32.340531 41.5732 31.021231L 55.6463 21.466431C 57.5894 20.147231 60.234 20.652931 61.5533 22.596031L 62.7476 24.355131ZM 58.9453 62.917131L 78.8822 49.381131L 83.6596 56.417731L 88.8351 64.040631L 130.9707 118.530631L 135.7481 125.567231L 131.0571 128.752131L 125.7797 132.335231L 111.7066 141.890031L 107.602 144.676831L 102.8246 137.640331L 68.8982 77.576631L 63.7227 69.953731L 58.9453 62.917131ZM 131.0571 128.752131L 135.7481 125.567231L 165.1619 168.890031L 165.2059 169.100031L 158.451 169.100031L 141.3174 169.100031L 124.1838 169.100031L 123.8642 168.629231L 107.602 144.676831L 111.7066 141.890031L 125.7797 132.335231L 131.0571 128.752131ZM 165.1619 168.890031L 165.3044 169.100031L 165.2059 169.100031L 165.1619 168.890031Z"></path>
</g>
</g>
</g>
<g id="g-root-cp_1_g-1_1lwsep4y7f9xh-stroke" data-item-order="-578138" transform="translate(225.78125, 367.9999694824219)">
<g id="cp_1_g-1_1lwsep4y7f9xh-stroke" fill="none" stroke-linecap="round" stroke-linejoin="round" stroke-miterlimit="4" stroke="#484848" stroke-width="2" stroke-opacity="1.0">
<g>
<path d="M 88.5544 30.820831L 77.4071 14.402231L 62.7476 24.355131L 41.638 38.687331L 31.6695 45.455331C 29.7264 46.774631 29.2207 49.419231 30.5399 51.362331L 42.4835 68.953731C 43.8027 70.896831 46.4474 71.402531 48.3905 70.083231L 78.8822 49.381131L 88.5544 30.820831ZM 41.6873 67.780931L 31.3362 52.535131L 24.2997 57.312531L 34.6507 72.558331L 41.6873 67.780931ZM 118.3661 20.416031C 121.0183 20.316131 122.37 17.148931 120.1363 15.715431C 115.5905 12.798031 110.7396 11.217031 105.9981 10.496231C 91.1671 8.241431 77.4071 14.402231 77.4071 14.402231L 88.5544 30.820831C 88.5544 30.820831 92.1998 27.705731 98.7132 24.878031C 103.6996 22.713331 110.3669 20.717131 118.3661 20.416031ZM 34.7371 82.779831C 37.3279 81.020831 38.0022 77.494631 36.2432 74.903831L 22.7072 54.967031C 20.9482 52.376231 17.422 51.701931 14.8312 53.460931L 12.4857 55.053331C 9.8949 56.812331 9.2206 60.338531 10.9796 62.929331L 24.5156 82.866231C 26.2746 85.456931 29.8008 86.131331 32.3916 84.372331L 34.7371 82.779831ZM 62.7476 24.355131L 41.638 38.687331L 40.4436 36.928231C 39.1244 34.985131 39.6301 32.340531 41.5732 31.021231L 55.6463 21.466431C 57.5894 20.147231 60.234 20.652931 61.5533 22.596031L 62.7476 24.355131ZM 58.9453 62.917131L 78.8822 49.381131L 83.6596 56.417731L 88.8351 64.040631L 130.9707 118.530631L 135.7481 125.567231L 131.0571 128.752131L 125.7797 132.335231L 111.7066 141.890031L 107.602 144.676831L 102.8246 137.640331L 68.8982 77.576631L 63.7227 69.953731L 58.9453 62.917131ZM 131.0571 128.752131L 135.7481 125.567231L 165.1619 168.890031L 165.2059 169.100031L 158.451 169.100031L 141.3174 169.100031L 124.1838 169.100031L 123.8642 168.629231L 107.602 144.676831L 111.7066 141.890031L 125.7797 132.335231L 131.0571 128.752131ZM 14.8312 53.460931L 19.6086 60.497431M 34.7371 82.779831L 26.3766 70.465831M 75.3146 22.676331L 60.6552 32.629231M 54.205 37.008531L 47.1684 41.785931M 131.0571 128.752131L 147.3799 152.793731M 153.7498 162.175731L 158.451 169.100031M 125.7797 132.335231L 137.3251 149.340231M 111.7066 141.890031L 128.0294 165.931531M 131.6712 154.892231L 141.3174 169.100031M 128.0881 149.614831L 124.5051 144.337431M 83.6596 56.417731L 63.7227 69.953731M 130.9707 118.530631L 102.8246 137.640331M 123.8642 168.629231L 123.8642 169.100031L 124.1838 169.100031M 165.1619 168.890031L 165.3044 169.100031L 165.2059 169.100031"></path>
</g>
</g>
</g>
<g id="g-root-tx_ucpecosy_1ut1w14y7f7d2-fill" data-item-order="0" transform="translate(266.0625, 38.0)">
<g id="tx_ucpecosy_1ut1w14y7f7d2-fill-merged" stroke="none" fill="#484848" fill-opacity="1.0">
<g>
<text transform="translate(173.71875, 10.0)" style="font-size:25px; font-family:'Playfair Display', sans-serif; font-weight:bold; white-space:pre;">
<tspan x="-161.72" y="30" dominant-baseline="ideographic">UCP Ecosystem Components</tspan>
</text>
</g>
</g>
</g>
<g id="g-root-tx_ucpecosy_1ut1w14y7f7d2-stroke" data-item-order="0" transform="translate(266.0625, 38.0)"></g>
<g id="g-root-ic_real_vahv1ky7f7r5-fill" data-item-order="0" transform="translate(137.78125, 326.0)"></g>
<g id="g-root-ic_real_vahv1ky7f7r5-stroke" data-item-order="0" transform="translate(137.78125, 326.0)">
<g id="ic_real_vahv1ky7f7r5-stroke" fill="none" stroke-linecap="round" stroke-linejoin="round" stroke-miterlimit="4" stroke="#484848" stroke-width="2" stroke-opacity="1.0">
<g>
<path d="M 47.5 43.5C 51.366001 43.5 54.5 40.365997 54.5 36.5C 54.5 32.634003 51.366001 29.499941 47.5 29.499941C 43.633999 29.499941 40.5 32.634003 40.5 36.5C 40.5 40.365997 43.633999 43.5 47.5 43.5ZM 56.5 56.5C 56.5 51.5 52.5 47.5 47.5 47.5C 45.700001 47.5 43.900002 48.099998 42.5 48.900002C 35.700001 46.700001 32.099998 41.099998 31.9 41.099998C 30.9 39.5 28.699961 38.900002 27.09996 39.900002C 25.49996 40.900002 24.89996 43.099998 25.89996 44.700001C 26.09996 45.099998 30.299999 51.5 38.5 54.900002C 38.5 55.299999 38.299999 55.900002 38.299999 56.299999M 26.92968 18.9L 34.327 18.9L 34.327 14.5L 39.327 14.5M 42.327 17.5C 43.983799 17.5 45.327 16.15686 45.327 14.5C 45.327 12.84314 43.983799 11.5 42.327 11.5C 40.669998 11.5 39.327 12.84314 39.327 14.5C 39.327 16.15686 40.669998 17.5 42.327 17.5ZM 34.327 18.8999L 34.327 21.8999M 15.50006 33.447601L 15.50006 39M 15.50006 45C 17.156919 45 18.500061 43.656799 18.500061 42C 18.500061 40.343201 17.156919 39 15.50006 39C 13.8432 39 12.50006 40.343201 12.50006 42C 12.50006 43.656799 13.8432 45 15.50006 45ZM 26.93088 33.6712C 26.93088 34.3834 26.456079 35.0956 25.981281 35.5704C 25.2691 36.0452 24.5569 36.0452 23.8447 36.0452L 13.16178 32.7216C 12.2122 32.4842 11.5 31.534599 11.5 30.347601L 11.5 17.29068C 11.5 16.341101 12.2122 15.3915 13.16178 14.9167L 23.8447 11.593132C 24.5569 11.355734 25.2691 11.593134 25.981281 12.06792C 26.69348 12.54272 26.93088 13.25492 26.93088 13.96712L 26.93088 33.6712Z"></path>
</g>
</g>
</g>
<g id="g-root-tx_aishoppi_i0aaugy7i2ha-fill" data-item-order="0" transform="translate(21.359375, 386.0)">
<g id="tx_aishoppi_i0aaugy7i2ha-fill-merged" stroke="none" fill="#e0cb15" fill-opacity="1.0">
<g>
<text transform="translate(170.421875, 10.0)" style="font-size:20px; font-family:'Source Serif 4', sans-serif; white-space:pre;">
<tspan x="-158.42" y="24" dominant-baseline="ideographic">AI Shopping Layer</tspan>
</text>
</g>
</g>
</g>
<g id="g-root-tx_aishoppi_i0aaugy7i2ha-stroke" data-item-order="0" transform="translate(21.359375, 386.0)"></g>
<g id="g-root-tx_aiassist_1lyntygy7i2oe-fill" data-item-order="0" transform="translate(14.0, 422.0)">
<g id="tx_aiassist_1lyntygy7i2oe-fill-merged" stroke="none" fill="#484848" fill-opacity="1.0">
<g>
<text transform="translate(177.78125, 37.0)" style="font-size:15px; font-family:'Source Serif 4', sans-serif; white-space:pre;">
<tspan x="-165.78" y="-9" dominant-baseline="ideographic">AI assistants like Google </tspan>
<tspan x="-140.36" y="9" dominant-baseline="ideographic">Gemini and ChatGPT </tspan>
<tspan x="-159.52" y="27" dominant-baseline="ideographic">need product data. UCP </tspan>
<tspan x="-151.36" y="45" dominant-baseline="ideographic">simplifies this process.</tspan>
</text>
</g>
</g>
</g>
<g id="g-root-tx_aiassist_1lyntygy7i2oe-stroke" data-item-order="0" transform="translate(14.0, 422.0)"></g>
<g id="g-root-ic_yuan_1lyntygy7i32k-fill" data-item-order="0" transform="translate(407.78125, 92.0)"></g>
<g id="g-root-ic_yuan_1lyntygy7i32k-stroke" data-item-order="0" transform="translate(407.78125, 92.0)">
<g id="ic_yuan_1lyntygy7i32k-stroke" fill="none" stroke-linecap="round" stroke-linejoin="round" stroke-miterlimit="4" stroke="#484848" stroke-width="2" stroke-opacity="1.0">
<g>
<path d="M 43.1716 29.252859C 43.627201 28.7973 44.167801 28.435921 44.763 28.18936C 45.3582 27.94282 45.995998 27.81592 46.640202 27.81592C 47.284401 27.81592 47.922401 27.94282 48.517601 28.18936C 49.112598 28.435921 49.6534 28.7973 50.109001 29.252859M 39.9216 25.055939C 41.702999 23.274639 44.119202 22.27392 46.638401 22.27392C 49.1576 22.27392 51.573601 23.274639 53.355 25.055939M 36.3806 21.248821C 39.1012 18.528339 42.791199 17 46.638599 17C 50.486198 17 54.175999 18.528339 56.896599 21.248821M 10 10M 38.653198 51.8162L 46.627201 56.468201C 46.973 56.6698 47.366001 56.7766 47.766201 56.777802C 48.166401 56.778999 48.560001 56.674599 48.907001 56.475201C 49.2542 56.275799 49.5424 55.9884 49.743 55.641998C 49.9436 55.295601 50.049198 54.902599 50.049198 54.502201L 50.049198 44.010201C 50.049198 43.214802 49.840599 42.433201 49.444401 41.743202C 49.048199 41.053398 48.478199 40.479401 47.791199 40.078201L 39.8172 35.4282C 39.4716 35.225998 39.078598 35.118797 38.678001 35.117203C 38.277599 35.115601 37.883801 35.220001 37.5364 35.419399C 37.189201 35.618999 36.900803 35.906601 36.700401 36.253403C 36.5 36.600201 36.394798 36.993797 36.395203 37.394199L 36.395203 47.884201C 36.394798 48.679798 36.603001 49.4618 36.999397 50.1516C 37.395599 50.841599 37.965797 51.4156 38.653198 51.8162L 38.653198 51.8162ZM 38.1534 35.162003L 53.7034 35.162003C 54.010601 35.1534 54.316399 35.2052 54.603401 35.315002C 54.890598 35.424801 55.153 35.590202 55.375999 35.801598C 55.598999 36.013 55.778198 36.266399 55.903 36.547401C 56.027802 36.828201 56.095798 37.130798 56.103401 37.438L 56.103401 52.237999M 45.1534 47.653801C 44.739201 47.653801 44.4034 47.318001 44.4034 46.903801C 44.4034 46.489601 44.739201 46.153801 45.1534 46.153801M 45.1534 47.653801C 45.5676 47.653801 45.9034 47.318001 45.9034 46.903801C 45.9034 46.489601 45.5676 46.153801 45.1534 46.153801M 31.103201 51L 15.10328 51C 14.0424 51 13.024981 50.578602 12.27484 49.8284C 11.524698 49.078201 11.103271 48.060799 11.103271 47L 11.103271 21C 11.103271 19.93914 11.524698 18.921719 12.27484 18.171581C 13.024981 17.421421 14.0424 17 15.10328 17L 33.1884 17M 33.5312 17L 19.103279 17L 21.103279 11L 35.103203 11L 36.103203 14M 10 10M 35.565201 55.610001L 35.103203 57L 21.103279 57L 19.103279 51M 20.782959 25.525879L 20.782959 30.065201C 20.782959 30.6614 20.900379 31.2516 21.1285 31.802401C 21.356621 32.353203 21.691 32.8536 22.11252 33.275002C 22.53404 33.696602 23.034439 34.030998 23.585201 34.259003C 24.135941 34.487198 24.726219 34.604599 25.32234 34.604599C 25.918461 34.604599 26.508739 34.487198 27.059481 34.259003C 27.61022 34.030998 28.11064 33.696602 28.53216 33.275002C 28.95368 32.8536 29.28804 32.353203 29.51618 31.802401C 29.744301 31.2516 29.861719 30.6614 29.861719 30.065201L 29.861719 25.525879M 25.32276 34.6054L 25.32276 43.398201M 20.782959 39.524002L 29.861719 39.524002"></path>
</g>
</g>
</g>
<g id="g-root-tx_universa_htf2w8y7kvf1-fill" data-item-order="0" transform="translate(378.4453125, 152.0)">
<g id="tx_universa_htf2w8y7kvf1-fill-merged" stroke="none" fill="#de8431" fill-opacity="1.0">
<g>
<text transform="translate(61.3359375, 34.0)" style="font-size:20px; font-family:'Source Serif 4', sans-serif; white-space:pre;">
<tspan x="-41.39" y="0" dominant-baseline="ideographic">Universal </tspan>
<tspan x="-49.34" y="24" dominant-baseline="ideographic">Commerce </tspan>
<tspan x="-35.55" y="48" dominant-baseline="ideographic">Protocol</tspan>
</text>
</g>
</g>
</g>
<g id="g-root-tx_universa_htf2w8y7kvf1-stroke" data-item-order="0" transform="translate(378.4453125, 152.0)"></g>
<g id="g-root-tx_ucpisano_1q7m44oy7kvm2-fill" data-item-order="0" transform="translate(342.8984375, 236.0)">
<g id="tx_ucpisano_1q7m44oy7kvm2-fill-merged" stroke="none" fill="#484848" fill-opacity="1.0">
<g>
<text transform="translate(96.8828125, 46.0)" style="font-size:15px; font-family:'Source Serif 4', sans-serif; white-space:pre;">
<tspan x="-81.84" y="-18" dominant-baseline="ideographic">UCP is an open standard </tspan>
<tspan x="-84.88" y="0" dominant-baseline="ideographic">developed by Shopify and </tspan>
<tspan x="-70.95" y="18" dominant-baseline="ideographic">Google. It provides AI </tspan>
<tspan x="-72.52" y="36" dominant-baseline="ideographic">agents with access to </tspan>
<tspan x="-66.27" y="54" dominant-baseline="ideographic">product information.</tspan>
</text>
</g>
</g>
</g>
<g id="g-root-tx_ucpisano_1q7m44oy7kvm2-stroke" data-item-order="0" transform="translate(342.8984375, 236.0)"></g>
<g id="g-root-ic_shop_zkp3e0y7kw7a-fill" data-item-order="0" transform="translate(677.78125, 305.0)"></g>
<g id="g-root-ic_shop_zkp3e0y7kw7a-stroke" data-item-order="0" transform="translate(677.78125, 305.0)">
<g id="ic_shop_zkp3e0y7kw7a-stroke" fill="none" stroke-linecap="round" stroke-linejoin="round" stroke-miterlimit="4" stroke="#484848" stroke-width="2" stroke-opacity="1.0">
<g>
<path d="M 39 54C 39 55.656857 40.343147 57 42 57C 43.656857 57 45 55.656857 45 54C 45 52.343147 43.656857 51 42 51C 40.343147 51 39 52.343147 39 54M 17 54C 17 55.656857 18.343147 57 20 57C 21.656855 57 23 55.656857 23 54C 23 52.343147 21.656855 51 20 51C 18.343147 51 17 52.343147 17 54M 57 17L 55.759998 17C 54.749481 16.991428 53.891335 17.738016 53.759998 18.74L 50.240002 45.259998C 50.108665 46.261986 49.250519 47.008572 48.240002 47L 11 47M 45 40C 45 40.552284 44.552284 41 44 41L 31 41L 31 13.42C 31.000139 13.094191 31.158991 12.788875 31.425718 12.601768C 31.692444 12.414661 32.0336 12.369225 32.34 12.48L 44.34 16.76C 44.735947 16.903151 44.999821 17.278969 45 17.700001ZM 43 16.280001L 43 11M 31 21L 37 21M 17 27L 23 27M 17 33L 23 33M 31 27L 40 27M 35 41L 35 34C 35 33.447716 35.447716 33 36 33L 40 33C 40.552284 33 41 33.447716 41 34L 41 41M 31 21L 18 21C 17.447716 21 17 21.447716 17 22L 17 40C 17 40.552284 17.447716 41 18 41L 31 41"></path>
</g>
</g>
</g>
<g id="g-root-tx_merchant_1hduj54y7kv7w-fill" data-item-order="0" transform="translate(677.78125, 365.0)">
<g id="tx_merchant_1hduj54y7kv7w-fill-merged" stroke="none" fill="#e55753" fill-opacity="1.0">
<g>
<text transform="translate(10.0, 22.0)" style="font-size:20px; font-family:'Source Serif 4', sans-serif; white-space:pre;">
<tspan x="2" y="12" dominant-baseline="ideographic">Merchants </tspan>
<tspan x="2" y="36" dominant-baseline="ideographic">Plugging In</tspan>
</text>
</g>
</g>
</g>
<g id="g-root-tx_merchant_1hduj54y7kv7w-stroke" data-item-order="0" transform="translate(677.78125, 365.0)"></g>
<g id="g-root-tx_shopifyw_4jtzs8y7kvm2-fill" data-item-order="0" transform="translate(677.78125, 425.0)">
<g id="tx_shopifyw_4jtzs8y7kvm2-fill-merged" stroke="none" fill="#484848" fill-opacity="1.0">
<g>
<text transform="translate(10.0, 46.0)" style="font-size:15px; font-family:'Source Serif 4', sans-serif; white-space:pre;">
<tspan x="2" y="-18" dominant-baseline="ideographic">Shopify, Walmart, Target, </tspan>
<tspan x="2" y="0" dominant-baseline="ideographic">and Wayfair are already </tspan>
<tspan x="2" y="18" dominant-baseline="ideographic">integrated. Any merchant </tspan>
<tspan x="2" y="36" dominant-baseline="ideographic">can connect via the open </tspan>
<tspan x="2" y="54" dominant-baseline="ideographic">API.</tspan>
</text>
</g>
</g>
</g>
<g id="g-root-tx_shopifyw_4jtzs8y7kvm2-stroke" data-item-order="0" transform="translate(677.78125, 425.0)"></g>
</g>
</g>
</svg>